<?xml version="1.0" standalone="no"?> <!DOCTYPE svg PUBLIC "-//W3C//DTD SVG 20010904//EN" "http://www.w3.org/TR/2001/REC-SVG-20010904/DTD/svg10.dtd"> <svg version="1.0" xmlns="http://www.w3.org/2000/svg" width="200.000000pt" height="200.000000pt" viewBox="0 0 200.000000 200.000000" preserveAspectRatio="xMidYMid meet"> <g transform="translate(0.000000,200.000000) scale(0.100000,-0.100000)" fill="#ffffff" stroke="none"> <path d="M490 1928 c-25 -13 -55 -38 -68 -57 l-22 -34 2 -841 3 -841 23 -33 c50 -69 33 -67 573 -67 l485 0 41 27 c77 51 73 6 73 840 l0 743 -143 143 -142 142 -391 0 c-384 0 -390 0 -434 -22z m810 -70 c0 -88 23 -145 71 -179 28 -20 49 -25 121 -27 l88 -4 2 -604 3 -604 -585 0 -585 0 5 697 c4 502 8 704 17 718 17 30 48 55 79 65 16 4 199 9 407 9 l377 1 0 -72z m147 -83 c80 -81 90 -95 71 -97 -27 -1 -45 0 -73 6 -11 3 -26 5 -33 5 -16 1 -66 51 -71 71 -6 26 -9 95 -4 103 8 13 15 8 110 -88z m-808 -1374 c85 -1 151 -4 147 -8 -4 -5 -11 -8 -15 -8 -3 0 -17 -10 -31 -22 -13 -13 -20 -23 -16 -23 4 0 0 -7 -8 -16 -19 -18 -22 -114 -5 -146 15 -28 61 -74 71 -70 4 1 8 -3 8 -9 0 -5 4 -8 8 -5 4 2 14 1 22 -4 24 -15 -291 -6 -320 8 -14 7 -36 28 -49 47 -20 30 -23 47 -24 147 l-2 113 30 -2 c17 -1 99 -2 184 -2z m934 -109 c-1 -100 -4 -117 -24 -147 -13 -19 -35 -39 -49 -46 -32 -15 -250 -23 -250 -9 0 5 6 10 14 10 22 0 39 28 32 54 -6 26 -64 53 -91 42 -8 -3 -17 -1 -21 5 -8 14 -8 134 0 148 4 6 -2 16 -14 23 -11 7 -20 16 -20 20 0 6 220 13 400 13 l25 0 -2 -113z m-601 86 c-18 -19 -24 -20 -34 -9 -11 11 -10 13 2 7 8 -4 6 0 -4 8 -19 15 -18 16 19 16 l39 0 -22 -22z m118 18 c0 -9 -30 -14 -35 -6 -4 6 3 10 14 10 12 0 21 -2 21 -4z m-171 -42 c31 -26 40 -57 20 -70 -6 -3 -24 8 -39 25 -56 60 -120 28 -120 -61 0 -100 85 -121 136 -33 6 11 15 15 22 11 21 -13 13 -46 -17 -77 -24 -24 -38 -29 -76 -29 -40 0 -52 5 -81 34 -31 31 -34 39 -34 96 0 57 3 65 34 96 45 45 108 48 155 8z m119 -102 c2 -106 0 -123 -14 -129 -9 -3 -20 0 -25 8 -10 17 -12 232 -2 243 4 4 14 5 23 4 12 -3 15 -25 18 -126z m103 116 c0 -7 0 -56 -1 -109 l-1 -96 55 5 c62 5 95 -10 75 -34 -15 -18 -150 -19 -167 -2 -13 13 -18 229 -5 241 11 12 43 8 44 -5z m-264 -80 c29 -27 29 -49 1 -75 -27 -24 -54 -26 -64 -4 -11 26 -4 75 14 89 21 16 22 16 49 -10z m83 -38 c0 -5 -2 -10 -4 -10 -3 0 -8 5 -11 10 -3 6 -1 10 4 10 6 0 11 -4 11 -10z m5 -119 c-3 -5 3 -12 14 -16 11 -3 24 -12 30 -19 10 -11 0 -14 -56 -14 l-67 0 32 29 c31 28 60 40 47 20z m128 -24 l25 -22 -32 1 c-61 2 -61 3 -40 23 24 25 19 25 47 -2z"/> <path d="M527 1879 c7 -7 15 -10 18 -7 3 3 -2 9 -12 12 -14 6 -15 5 -6 -5z"/> </g> </svg>