<?xml version="1.0" standalone="no"?> <!DOCTYPE svg PUBLIC "-//W3C//DTD SVG 20010904//EN" "http://www.w3.org/TR/2001/REC-SVG-20010904/DTD/svg10.dtd"> <svg version="1.0" xmlns="http://www.w3.org/2000/svg" width="225.000000pt" height="225.000000pt" viewBox="0 0 225.000000 225.000000" preserveAspectRatio="xMidYMid meet"> <g transform="translate(0.000000,225.000000) scale(0.100000,-0.100000)" fill="#fafafa" stroke="none"> <path d="M473 2169 c-45 -13 -100 -71 -113 -118 -6 -25 -9 -158 -8 -362 3 -288 5 -323 20 -332 12 -8 21 -7 32 2 14 12 16 55 16 348 l0 335 34 34 34 34 690 0 690 0 -19 -37 c-17 -33 -19 -61 -19 -259 0 -190 2 -223 16 -235 11 -9 20 -10 32 -2 14 8 17 31 20 132 l3 121 127 0 c86 0 132 4 140 12 8 8 12 45 12 100 0 128 -26 183 -105 219 -38 18 -83 19 -805 18 -444 -1 -779 -5 -797 -10z m62 -27 c-3 -3 -11 0 -18 7 -9 10 -8 11 6 5 10 -3 15 -9 12 -12z m1421 5 c4 -3 14 -2 24 3 11 6 17 5 17 -3 0 -7 -14 -13 -30 -14 -27 -2 -72 -36 -72 -55 0 -4 -6 -13 -12 -19 -10 -10 -12 -8 -8 9 2 12 6 26 10 31 3 5 1 13 -5 16 -8 5 -7 12 2 23 12 13 10 14 -9 4 -18 -10 -41 -3 -28 9 6 7 104 3 111 -4z m74 -7 c0 -5 -2 -10 -4 -10 -3 0 -8 5 -11 10 -3 6 -1 10 4 10 6 0 11 -4 11 -10z m25 -1 c-4 -6 -1 -10 6 -8 31 4 41 -1 35 -17 -4 -11 -2 -15 8 -11 10 4 13 1 9 -9 -4 -11 -9 -12 -19 -3 -7 6 -12 16 -11 22 1 6 -5 12 -13 13 -28 2 -31 4 -25 14 3 6 8 10 11 10 3 0 2 -5 -1 -11z m-1575 -13 c0 -2 -7 -7 -16 -10 -8 -3 -12 -2 -9 4 6 10 25 14 25 6z m-47 -23 c-7 -2 -13 -11 -13 -19 0 -8 -5 -14 -10 -14 -7 0 -7 6 0 20 6 11 16 20 23 19 9 0 9 -2 0 -6z m1643 -27 c32 -32 34 -37 34 -107 l0 -74 -105 3 -105 3 0 72 c0 53 5 78 18 93 45 55 109 59 158 10z m59 5 c3 -5 2 -12 -3 -15 -5 -3 -9 1 -9 9 0 17 3 19 12 6z m-1725 -25 c0 -2 -7 -9 -15 -16 -13 -11 -14 -10 -9 4 5 14 24 23 24 12z m1458 -92 l-3 -39 -5 47 c-3 26 -1 43 3 39 5 -5 7 -26 5 -47z m22 -86 c0 -4 8 -8 18 -8 13 0 10 -5 -11 -18 -15 -10 -24 -22 -20 -25 3 -4 0 -7 -8 -7 -10 0 -14 12 -15 40 0 23 3 37 9 33 7 -4 8 1 4 13 -7 18 -7 18 8 0 8 -11 15 -23 15 -28z m260 14 c0 -19 -36 -47 -44 -34 -3 5 4 14 14 22 10 8 17 17 14 22 -3 4 0 8 5 8 6 0 11 -8 11 -18z m-283 -234 c-2 -24 -4 -7 -4 37 0 44 2 63 4 43 2 -21 2 -57 0 -80z m-1480 -205 c-2 -32 -3 -6 -3 57 0 63 1 89 3 58 2 -32 2 -84 0 -115z"/> <path d="M1980 2040 c-6 -11 -8 -20 -6 -20 3 0 10 9 16 20 6 11 8 20 6 20 -3 0 -10 -9 -16 -20z"/> <path d="M336 2132 c-3 -5 1 -9 9 -9 8 0 12 4 9 9 -3 4 -7 8 -9 8 -2 0 -6 -4 -9 -8z"/> <path d="M792 1962 c-9 -6 -12 -34 -10 -103 l3 -94 340 0 340 0 3 94 c2 69 -1 97 -10 103 -17 10 -649 10 -666 0z m33 -52 c-20 -23 -29 -21 -19 4 3 9 13 16 22 16 13 0 12 -3 -3 -20z m615 10 c0 -5 -4 -10 -9 -10 -6 0 -13 5 -16 10 -3 6 1 10 9 10 9 0 16 -4 16 -10z m-30 -55 l0 -35 -285 0 -285 0 0 35 0 35 285 0 285 0 0 -35z m26 -58 c0 -17 -5 -23 -20 -22 -12 1 -20 5 -18 8 1 4 5 6 8 5 3 -2 10 5 15 15 13 22 15 22 15 -6z m-606 2 c0 -5 3 -8 8 -6 4 3 16 1 27 -3 15 -6 10 -8 -17 -8 -26 0 -38 4 -38 14 0 8 5 14 10 14 6 0 10 -5 10 -11z"/> <path d="M2220 1800 c-6 -11 -8 -20 -6 -20 3 0 10 9 16 20 6 11 8 20 6 20 -3 0 -10 -9 -16 -20z"/> <path d="M927 1644 c-13 -13 -7 -52 9 -58 24 -9 367 -7 382 3 8 4 12 19 10 32 l-3 24 -196 3 c-107 1 -198 -1 -202 -4z"/> <path d="M2012 1626 c-16 -14 -40 -45 -53 -70 -17 -33 -30 -46 -46 -46 -16 0 -30 -15 -53 -55 -30 -53 -32 -54 -53 -40 -29 20 -97 19 -123 -3 -12 -9 -56 -77 -98 -150 -77 -134 -88 -172 -47 -172 24 0 37 17 116 153 37 65 73 121 80 124 15 5 55 -13 55 -26 0 -4 -74 -137 -165 -294 l-166 -287 -6 -78 c-3 -48 -2 -86 5 -98 7 -13 6 -26 -5 -47 -11 -22 -12 -32 -2 -43 18 -22 48 -17 61 11 7 15 19 25 33 25 12 0 52 21 90 48 65 45 72 54 161 207 52 88 93 169 91 180 -1 13 -11 21 -27 23 -23 2 -33 -12 -109 -145 -47 -82 -86 -150 -87 -151 -1 -2 -30 11 -63 30 -41 22 -59 38 -56 47 3 8 74 133 157 277 l152 263 61 -34 c33 -19 59 -38 58 -43 -1 -5 -18 -37 -38 -71 -40 -68 -43 -104 -9 -109 18 -3 30 11 65 73 32 56 47 74 59 69 29 -13 52 -9 64 10 9 15 7 21 -16 38 l-27 21 31 55 c24 41 29 58 21 71 -8 12 -2 31 25 79 41 75 39 116 -9 156 -40 34 -88 34 -127 2z m44 -21 c-11 -8 -22 -12 -25 -9 -6 6 19 24 34 24 6 -1 1 -7 -9 -15z m74 -13 c0 -12 -3 -12 -15 -2 -8 7 -15 13 -15 15 0 1 7 2 15 2 8 0 15 -7 15 -15z m-107 -6 c4 -10 1 -13 -8 -9 -8 3 -12 9 -9 14 7 12 11 11 17 -5z m84 -23 c5 -14 -43 -123 -55 -123 -1 0 -17 7 -33 16 l-30 15 27 47 c15 26 29 50 31 55 8 14 54 7 60 -10z m43 -2 c0 -6 -4 -12 -8 -15 -5 -3 -9 1 -9 9 0 8 4 15 9 15 4 0 8 -4 8 -9z m-165 -47 c-23 -34 -23 -37 -9 -60 19 -29 17 -29 -26 -7 -24 12 -35 13 -38 5 -2 -7 -8 -12 -14 -12 -17 0 13 30 31 31 12 0 11 2 -4 9 -20 8 -20 9 1 9 11 1 33 15 49 31 38 39 40 38 10 -6z m154 -9 c-12 -19 -25 -38 -30 -41 -5 -3 -7 -9 -5 -13 3 -4 -1 -8 -9 -8 -12 0 -12 3 -2 16 6 9 14 18 17 21 3 3 13 17 23 33 25 39 30 33 6 -8z m-150 -110 l61 -36 -17 -27 c-9 -15 -18 -29 -19 -31 -2 -2 -107 53 -122 65 -4 3 30 64 35 64 1 0 29 -16 62 -35z m61 20 c8 2 22 6 31 10 13 5 15 0 12 -32 -2 -21 -4 -44 -5 -51 -1 -8 -14 -27 -29 -43 -15 -17 -28 -32 -29 -35 0 -2 12 -16 27 -30 27 -24 27 -25 4 -13 -23 11 -28 9 -53 -22 -17 -20 -28 -27 -28 -18 0 8 5 20 12 27 7 7 8 12 3 12 -6 0 -4 4 3 8 9 7 6 16 -15 37 -23 23 -24 26 -6 16 16 -8 28 -8 47 0 31 14 64 59 44 59 -10 0 -10 2 0 8 9 6 7 13 -8 28 -34 34 -48 43 -56 36 -4 -4 -4 -1 0 6 5 8 12 10 19 4 7 -5 19 -8 27 -7z m-255 -23 c-3 -3 -11 0 -18 7 -9 10 -8 11 6 5 10 -3 15 -9 12 -12z m20 -12 c-3 -5 1 -10 9 -10 8 0 18 5 21 10 3 6 14 10 23 9 11 0 13 -2 4 -6 -10 -4 -10 -8 0 -21 11 -13 11 -15 -2 -8 -8 4 -4 -2 10 -13 25 -20 18 -29 -9 -12 -17 11 -51 -21 -77 -70 -8 -17 -18 -29 -20 -26 -3 3 4 20 15 38 11 18 18 36 15 41 -3 4 2 5 10 2 13 -5 14 -1 5 25 -6 17 -16 31 -22 31 -7 0 -5 5 3 10 19 12 23 12 15 0z m-149 -57 c-8 -16 -23 -36 -32 -44 -15 -11 -15 -9 2 16 12 17 24 39 28 49 3 10 9 16 12 13 3 -3 -1 -18 -10 -34z m-75 -126 c-10 -9 -11 -8 -5 6 3 10 9 15 12 12 3 -3 0 -11 -7 -18z m167 3 c-7 -10 -14 -17 -17 -15 -4 4 18 35 25 35 2 0 -1 -9 -8 -20z m-168 -25 c0 -2 -10 -9 -22 -15 -22 -11 -22 -10 -4 4 21 17 26 19 26 11z m132 -34 c-7 -4 -14 -16 -16 -25 -1 -10 -9 -22 -17 -27 -8 -5 -10 -9 -5 -9 5 0 2 -7 -5 -16 -7 -9 -14 -22 -15 -29 -1 -8 -16 -34 -33 -58 -16 -24 -29 -46 -27 -48 2 -2 -8 -13 -22 -24 l-26 -19 25 34 c14 19 31 47 39 63 7 15 17 27 22 27 5 0 6 5 3 10 -3 6 -1 10 5 10 6 0 9 4 6 9 -3 5 1 14 9 21 8 7 12 16 10 21 -3 4 3 12 12 18 10 6 14 11 10 11 -13 0 13 40 26 40 9 0 8 -3 -1 -9z m112 -231 c-15 -28 -29 -49 -31 -46 -7 6 43 96 53 96 2 0 -8 -23 -22 -50z m-254 -33 c0 -2 -10 -12 -21 -23 -22 -19 -22 -19 -8 4 12 19 29 30 29 19z m-35 -57 c-3 -5 -12 -10 -18 -10 -7 0 -6 4 3 10 19 12 23 12 15 0z m231 -9 c0 -11 -8 -22 -18 -24 -16 -5 -16 -3 -1 19 19 29 19 29 19 5z m-256 -26 c-10 -12 -9 -20 4 -40 18 -27 20 -36 9 -33 -19 3 -41 -15 -38 -31 2 -10 0 -23 -4 -30 -4 -7 -7 13 -7 43 1 31 4 56 9 56 4 0 6 3 5 8 -2 13 14 42 24 42 6 0 5 -6 -2 -15z m216 -51 c-19 -19 -21 -11 -4 16 7 11 14 16 16 10 2 -5 -4 -17 -12 -26z m-140 -45 c4 -8 1 -8 -14 0 -12 6 -24 16 -28 22 -4 8 -1 8 14 0 12 -6 24 -16 28 -22z m97 -28 c-15 -22 -31 -37 -35 -34 -5 2 -8 0 -8 -5 0 -5 -7 -9 -15 -9 -8 0 -12 4 -9 8 2 4 0 19 -6 34 -9 23 -8 26 5 21 8 -3 21 -9 29 -12 8 -3 23 3 33 14 31 35 36 24 6 -17z m-93 -22 c0 -10 -47 -39 -65 -39 -11 0 -15 11 -15 46 l0 45 40 -22 c22 -13 40 -26 40 -30z m-103 -36 c-4 -3 2 -13 14 -21 l20 -14 -20 -17 c-11 -10 -17 -22 -13 -26 4 -5 1 -5 -6 0 -9 5 -10 11 -4 17 7 7 7 19 2 33 -8 21 -5 35 8 35 3 0 2 -3 -1 -7z m90 -25 c-3 -8 -6 -5 -6 6 -1 11 2 17 5 13 3 -3 4 -12 1 -19z m-27 -8 c-6 -11 -13 -20 -16 -20 -2 0 0 9 6 20 6 11 13 20 16 20 2 0 0 -9 -6 -20z"/> <path d="M926 1538 c3 -5 10 -6 15 -3 13 9 11 12 -6 12 -8 0 -12 -4 -9 -9z"/> <path d="M1469 1513 c-13 -16 -12 -17 4 -4 9 7 17 15 17 17 0 8 -8 3 -21 -13z"/> <path d="M784 1455 c-4 -8 -4 -22 0 -30 5 -13 49 -15 343 -13 l338 3 0 25 0 25 -338 3 c-294 2 -338 0 -343 -13z"/> <path d="M1485 1340 c10 -11 20 -20 23 -20 3 0 -3 9 -13 20 -10 11 -20 20 -23 20 -3 0 3 -9 13 -20z"/> <path d="M293 1187 c-117 -78 -215 -148 -217 -154 -3 -7 -3 -20 0 -28 5 -13 57 -15 353 -17 l346 -3 3 -212 2 -213 -54 0 -54 0 -4 111 -3 111 -33 29 c-29 26 -39 29 -105 29 -61 0 -77 -4 -102 -24 -30 -24 -30 -25 -33 -140 l-4 -116 -54 0 -54 0 -2 173 -3 172 -24 3 c-13 2 -28 -2 -32 -10 -5 -7 -9 -97 -9 -200 0 -175 1 -188 19 -198 29 -15 583 -14 599 2 9 9 12 78 12 250 l0 237 68 3 c60 3 67 5 70 25 3 19 -30 44 -215 168 -120 80 -227 145 -238 144 -11 0 -115 -64 -232 -142z m262 102 c4 -5 -3 -8 -14 -6 -28 4 -34 12 -11 14 11 1 22 -2 25 -8z m-62 -14 c-3 -9 -8 -14 -10 -11 -3 3 -2 9 2 15 9 16 15 13 8 -4z m99 -9 c7 4 8 2 4 -5 -9 -13 -26 -5 -25 12 0 9 2 8 6 -1 2 -6 10 -9 15 -6z m91 -108 l152 -103 -152 -3 c-83 -1 -222 -1 -309 0 l-157 3 154 102 c85 57 155 103 157 103 1 0 71 -46 155 -102z m-59 86 c3 -8 2 -12 -4 -9 -6 3 -10 10 -10 16 0 14 7 11 14 -7z m-184 -10 c0 -3 -70 -44 -76 -44 -3 0 7 11 22 23 22 19 54 32 54 21z m243 -29 c32 -31 37 -46 5 -19 -41 35 -49 44 -41 44 4 0 21 -11 36 -25z m51 -41 c3 -8 2 -12 -4 -9 -6 3 -10 10 -10 16 0 14 7 11 14 -7z m-419 -14 c-3 -5 -12 -10 -18 -10 -7 0 -6 4 3 10 19 12 23 12 15 0z m469 -11 c-2 -4 4 -12 13 -18 10 -6 13 -11 7 -11 -6 0 -18 8 -27 18 -14 15 -15 19 -2 19 8 0 12 -4 9 -8z m-529 -29 c-15 -16 -32 -27 -36 -24 -4 2 -11 -5 -14 -17 -4 -13 -2 -25 5 -29 8 -5 9 -10 2 -14 -15 -9 -81 -11 -89 -2 -8 7 34 45 50 46 4 0 20 11 34 24 15 14 30 23 35 20 4 -3 11 2 14 10 3 9 11 16 17 16 6 0 -2 -13 -18 -30z m588 -10 c7 0 25 -11 40 -25 15 -14 27 -23 27 -20 0 4 7 -1 16 -10 22 -21 17 -24 -40 -26 -33 -2 -51 -8 -60 -21 -13 -18 -15 -18 -42 8 -16 14 -21 21 -11 14 13 -9 17 -9 17 -1 0 7 4 10 9 7 17 -11 40 6 50 37 6 17 8 28 5 24 -9 -9 -34 12 -33 27 0 7 2 6 6 -1 2 -7 10 -13 16 -13z m-238 -300 c-3 -5 2 -10 11 -10 10 0 14 -3 11 -7 -4 -3 -1 -13 5 -22 7 -9 0 -5 -14 8 -23 20 -29 41 -12 41 3 0 2 -4 -1 -10z m-155 -20 c-6 -11 -16 -20 -23 -20 -7 0 -6 4 3 10 8 5 11 10 5 10 -5 0 -3 5 5 10 21 14 22 13 10 -10z m131 -10 c17 -10 19 -22 19 -111 l0 -100 -72 3 -73 3 -3 87 c-2 77 0 90 18 108 22 22 78 27 111 10z m-301 -239 c0 -4 -9 -7 -20 -7 -15 0 -20 7 -20 25 0 23 1 24 20 6 11 -10 20 -21 20 -24z m371 14 c5 4 9 1 9 -4 0 -6 -3 -11 -7 -12 -5 0 -18 -2 -30 -3 -28 -3 -28 1 -5 27 15 17 17 17 20 3 2 -9 8 -14 13 -11z m-200 2 c14 -10 14 -14 3 -25 -8 -7 -14 -9 -14 -3 0 5 -7 12 -16 15 -10 4 -13 2 -8 -6 5 -8 2 -9 -10 -5 -10 4 -20 7 -24 7 -3 0 3 7 14 15 23 18 34 18 55 2z m363 -11 c-5 -12 -13 -13 -44 -6 -3 0 4 7 14 15 21 16 38 11 30 -9z"/> <path d="M787 1293 c-16 -16 -6 -53 16 -58 12 -3 172 -4 356 -3 299 3 335 5 344 20 8 12 7 21 -2 32 -12 14 -56 16 -361 16 -190 0 -350 -3 -353 -7z"/> <path d="M1064 1105 c-4 -8 -4 -22 0 -30 5 -13 32 -15 188 -13 l183 3 0 25 0 25 -183 3 c-156 2 -183 0 -188 -13z"/> <path d="M924 895 c-4 -8 -4 -22 0 -30 5 -13 40 -15 258 -13 l253 3 0 25 0 25 -253 3 c-218 2 -253 0 -258 -13z"/> <path d="M1842 748 c-9 -9 -12 -84 -12 -276 l0 -264 -34 -34 c-37 -37 -74 -44 -120 -22 -39 17 -57 53 -64 127 l-7 66 -754 3 c-549 1 -758 -1 -767 -9 -21 -17 -17 -116 5 -165 22 -47 59 -80 110 -95 24 -7 288 -9 806 -7 l770 3 37 23 c20 13 47 40 60 60 22 36 23 45 26 305 3 270 0 297 -32 297 -7 0 -17 -5 -24 -12z m-255 -444 c0 -8 -6 -14 -12 -14 -15 0 -37 25 -29 32 10 10 41 -3 41 -18z m-1456 -11 c-21 -29 -31 -29 -31 2 0 20 5 24 24 23 23 -2 23 -3 7 -25z m1419 -48 c0 -20 7 -51 14 -70 l15 -35 -686 0 -685 0 -34 34 c-26 26 -34 42 -34 70 l0 36 705 0 705 0 0 -35z m330 1 c0 -2 -7 -7 -16 -10 -8 -3 -12 -2 -9 4 6 10 25 14 25 6z m-33 -68 c-14 -23 -30 -43 -36 -44 -7 -2 -7 0 -1 3 5 2 8 9 4 14 -3 5 -1 9 5 9 6 0 17 14 26 30 9 17 18 30 21 30 3 0 -5 -19 -19 -42z m-242 2 c10 -20 33 -38 65 -52 28 -12 50 -26 50 -32 0 -6 -5 -5 -12 2 -13 13 -32 17 -25 5 3 -5 -26 -8 -64 -8 l-68 0 24 23 c28 26 29 30 15 66 -13 35 -4 33 15 -4z m-1458 -17 c-4 -3 1 -12 11 -20 13 -10 14 -13 2 -11 -25 5 -36 38 -13 38 4 0 3 -3 0 -7z m47 -41 c3 -5 -1 -9 -9 -9 -8 0 -12 4 -9 9 3 4 7 8 9 8 2 0 6 -4 9 -8z m1581 -1 c3 -5 2 -12 -3 -15 -5 -3 -9 1 -9 9 0 17 3 19 12 6z m-230 -11 c-4 -7 -232 -9 -658 -8 l-652 3 655 5 c360 3 656 6 658 8 2 1 0 -2 -3 -8z"/> <path d="M1002 731 c-8 -4 -12 -19 -10 -32 l3 -24 144 0 c123 0 145 2 154 17 8 12 7 21 -2 32 -11 13 -37 16 -145 16 -72 0 -137 -4 -144 -9z"/> <path d="M1660 380 c6 -11 13 -20 16 -20 2 0 0 9 -6 20 -6 11 -13 20 -16 20 -2 0 0 -9 6 -20z"/> <path d="M1770 246 c0 -2 8 -10 18 -17 15 -13 16 -12 3 4 -13 16 -21 21 -21 13z"/> <path d="M1663 225 c0 -8 4 -12 9 -9 5 3 6 10 3 15 -9 13 -12 11 -12 -6z"/> </g> </svg>