<?xml version="1.0" standalone="no"?> <!DOCTYPE svg PUBLIC "-//W3C//DTD SVG 20010904//EN" "http://www.w3.org/TR/2001/REC-SVG-20010904/DTD/svg10.dtd"> <svg version="1.0" xmlns="http://www.w3.org/2000/svg" width="211.000000pt" height="239.000000pt" viewBox="0 0 211.000000 239.000000" preserveAspectRatio="xMidYMid meet"> <g transform="translate(0.000000,239.000000) scale(0.100000,-0.100000)" fill="#fefbfb" stroke="none"> <path d="M118 2380 c-21 -4 -48 -15 -59 -26 -51 -45 -49 -9 -49 -1161 0 -1007 1 -1080 18 -1112 20 -41 55 -67 100 -75 41 -7 34 7 -14 30 -19 9 -43 29 -54 44 -20 28 -20 47 -20 1109 0 954 1 1085 15 1111 19 36 59 65 77 54 7 -4 10 -4 6 1 -4 4 0 14 10 21 9 7 15 13 12 13 -3 -1 -22 -5 -42 -9z"/> <path d="M1911 2375 c9 -9 24 -17 33 -19 9 -1 32 -17 51 -35 28 -26 33 -36 25 -50 -5 -11 -5 -22 0 -27 6 -6 10 -236 10 -553 1 -484 0 -546 -15 -560 -11 -11 -20 -13 -31 -6 -13 9 -15 79 -15 568 1 580 0 587 -39 587 -6 0 -8 4 -5 10 4 6 -304 10 -879 10 l-884 0 -31 -26 -31 -26 0 -1045 0 -1046 26 -34 26 -34 503 3 c466 3 504 2 514 -14 8 -14 5 -23 -14 -44 -30 -33 -26 -40 12 -22 22 10 29 21 31 49 6 66 25 63 -547 69 l-516 5 0 1060 0 1060 893 5 c558 3 897 1 903 -4 5 -6 9 -230 9 -571 0 -532 1 -563 18 -578 25 -23 58 -21 82 3 20 20 20 33 20 593 0 539 -1 574 -19 607 -20 39 -59 64 -111 74 -32 6 -33 5 -19 -9z"/> <path d="M2065 2351 c-3 -5 -2 -12 3 -15 5 -3 9 1 9 9 0 17 -3 19 -12 6z"/> <path d="M1330 1976 c0 -2 8 -10 18 -17 15 -13 16 -12 3 4 -13 16 -21 21 -21 13z"/> <path d="M1065 1956 c-22 -8 -52 -29 -66 -46 -19 -23 -34 -30 -61 -30 -19 0 -57 -11 -84 -25 -65 -33 -119 -33 -150 0 -22 24 -29 25 -129 25 -159 0 -155 10 -130 -275 20 -220 19 -219 143 -223 l91 -3 22 31 c38 51 61 41 109 -44 22 -41 55 -87 72 -101 27 -23 38 -26 72 -20 23 3 60 6 84 5 23 0 57 7 75 16 17 9 46 18 64 19 18 1 42 10 52 19 11 10 25 15 31 11 16 -10 79 14 90 35 6 10 10 30 10 44 0 32 31 35 60 6 17 -17 33 -20 100 -20 66 0 83 3 100 20 25 25 26 32 45 226 19 203 19 200 -5 224 -17 17 -33 20 -123 20 -64 0 -107 -4 -114 -11 -9 -9 -24 -3 -61 24 -112 80 -211 104 -297 73z m138 -35 c21 -5 71 -31 112 -58 l75 -48 0 -177 0 -178 -24 0 c-21 0 -36 21 -109 153 -47 83 -97 161 -111 171 -31 24 -51 17 -120 -43 -53 -46 -89 -59 -111 -41 -8 7 -15 16 -15 19 0 4 32 45 71 92 93 111 137 132 232 110z m383 -82 c35 -1 61 -7 62 -13 3 -40 3 -57 -1 -106 -3 -30 -8 -71 -11 -90 -3 -19 -8 -66 -10 -105 -7 -112 -13 -118 -118 -116 -50 0 -65 5 -85 25 -14 14 -20 27 -14 30 6 4 10 68 10 159 0 84 3 161 6 172 6 16 5 17 -4 5 -6 -8 -11 -10 -11 -4 0 23 27 43 65 46 22 2 43 2 46 1 3 -1 32 -3 65 -4z m-908 -198 c2 -134 -1 -198 -9 -207 -8 -9 -34 -14 -80 -14 -57 0 -70 3 -79 19 -12 23 -44 367 -36 388 4 11 27 13 103 11 l98 -3 3 -194z m218 145 c-41 -47 -45 -57 -37 -79 6 -14 22 -34 36 -43 39 -25 88 -13 153 41 30 25 62 44 71 43 17 -3 200 -322 201 -350 0 -19 -37 -49 -54 -42 -6 2 -29 38 -51 79 -38 71 -56 88 -70 65 -3 -5 11 -42 31 -81 36 -69 37 -72 19 -85 -33 -24 -43 -17 -95 70 -21 34 -41 56 -52 56 -26 0 -22 -16 22 -86 39 -62 39 -64 19 -75 -37 -19 -64 -3 -95 56 -28 52 -46 66 -59 45 -3 -5 5 -31 19 -58 26 -51 25 -62 -4 -62 -31 0 -65 36 -110 119 -44 79 -46 81 -82 81 l-38 0 0 159 0 158 48 -4 c38 -4 56 0 92 21 76 44 88 34 36 -28z"/> <path d="M1490 1573 c-28 -20 -41 -54 -26 -72 6 -9 7 -12 1 -9 -6 4 -12 -2 -12 -13 -1 -15 2 -18 10 -11 7 5 21 6 32 2 47 -17 88 28 64 71 -7 13 -13 28 -14 33 0 15 -32 15 -55 -1z m50 -47 c0 -23 -22 -36 -42 -25 -23 12 -23 35 -1 48 19 10 43 -2 43 -23z"/> <path d="M576 1541 c-11 -18 6 -42 28 -39 29 4 29 42 -1 46 -11 2 -24 -1 -27 -7z"/> <path d="M456 949 c-31 -25 -34 -61 -6 -89 19 -19 33 -20 553 -20 l533 0 29 30 c25 26 27 33 17 55 -7 14 -23 30 -38 35 -15 6 -229 10 -543 10 -509 0 -519 0 -545 -21z m1090 -27 c12 -7 12 -11 -2 -30 l-15 -22 -522 0 c-287 0 -527 4 -532 8 -10 6 -11 17 -7 47 2 12 1056 10 1078 -3z"/> <path d="M1825 922 c-6 -4 -30 -32 -53 -62 l-43 -54 38 -32 c21 -17 84 -67 139 -112 l101 -80 47 61 c66 87 64 94 -68 200 -102 81 -136 98 -161 79z m55 -33 c0 -5 16 -17 35 -26 19 -9 32 -20 29 -25 -3 -4 1 -8 9 -8 8 0 17 -7 21 -15 3 -8 10 -15 17 -15 6 0 26 -14 45 -32 40 -38 39 -66 -2 -109 -23 -24 -71 -38 -58 -17 3 4 -1 8 -9 8 -8 0 -14 8 -13 18 1 11 -5 16 -16 14 -10 -2 -39 17 -65 43 -26 25 -53 45 -60 45 -13 0 -39 40 -26 40 4 0 1 5 -7 10 -13 8 -12 10 3 10 10 0 16 4 13 8 -8 14 54 72 70 65 8 -3 14 -9 14 -14z"/> <path d="M1703 845 c0 -8 4 -12 9 -9 5 3 6 10 3 15 -9 13 -12 11 -12 -6z"/> <path d="M1606 737 c3 -10 9 -15 12 -12 3 3 0 11 -7 18 -10 9 -11 8 -5 -6z"/> <path d="M1549 574 l-134 -175 -17 -162 c-10 -89 -14 -164 -10 -168 4 -4 74 19 156 51 l150 57 133 173 c73 95 133 176 132 179 0 5 -160 133 -253 203 -22 17 -23 16 -157 -158z m165 115 c-3 -5 -1 -9 4 -9 5 0 22 -12 38 -26 16 -14 48 -38 71 -54 23 -15 40 -30 36 -34 -3 -3 -1 -6 6 -6 6 0 24 -11 39 -25 15 -14 22 -25 17 -25 -6 0 -21 -18 -35 -39 -13 -22 -28 -38 -32 -35 -4 3 -8 1 -8 -5 0 -6 -29 -48 -65 -93 -91 -116 -95 -121 -95 -131 0 -5 -7 -4 -15 3 -9 7 -13 20 -10 29 3 8 3 12 -1 9 -3 -4 -33 15 -66 43 -32 27 -64 49 -69 49 -6 0 -7 5 -4 10 3 6 1 10 -6 10 -7 0 -21 7 -31 16 -15 14 -20 15 -34 3 -13 -11 -12 -4 5 29 13 26 26 40 33 36 7 -4 8 -3 4 5 -4 6 0 14 8 17 9 3 14 10 11 14 -3 5 0 12 7 17 14 9 64 73 67 86 0 4 9 15 19 25 9 10 26 31 37 46 32 45 45 56 60 50 8 -4 12 -10 9 -15z m-146 -409 c44 -35 80 -65 79 -66 -7 -5 -210 -94 -214 -94 -7 0 1 82 17 172 9 49 15 66 24 60 7 -4 49 -36 94 -72z"/> <path d="M893 610 c-254 -3 -463 -7 -466 -10 -2 -3 -10 -15 -16 -27 -12 -24 -1 -59 23 -75 6 -4 198 -8 426 -7 l415 0 48 64 c26 36 44 64 40 63 -5 -2 -216 -5 -470 -8z m407 -29 c0 -5 -7 -17 -16 -25 -8 -9 -12 -16 -8 -16 5 0 3 -5 -2 -10 -8 -8 -391 -13 -817 -10 -14 0 -18 6 -15 28 l3 27 420 5 c231 3 423 6 428 8 4 1 7 -2 7 -7z"/> </g> </svg>