<?xml version="1.0" standalone="no"?> <!DOCTYPE svg PUBLIC "-//W3C//DTD SVG 20010904//EN" "http://www.w3.org/TR/2001/REC-SVG-20010904/DTD/svg10.dtd"> <svg version="1.0" xmlns="http://www.w3.org/2000/svg" width="600.000000pt" height="481.000000pt" viewBox="0 0 600.000000 481.000000" preserveAspectRatio="xMidYMid meet"> <g transform="translate(0.000000,481.000000) scale(0.100000,-0.100000)" fill="#f5f4f4" stroke="none"> <path d="M4194 4511 c-53 -24 -154 -119 -199 -186 -44 -67 -46 -112 -7 -191 l27 -56 -30 -24 c-37 -30 -188 -103 -275 -135 -59 -21 -85 -23 -290 -27 -274 -4 -352 -19 -439 -83 -82 -61 -750 -734 -796 -802 -34 -51 -40 -67 -43 -127 -6 -95 15 -154 76 -212 68 -67 117 -88 200 -88 112 0 130 14 463 339 l296 289 659 -659 659 -659 430 428 430 429 48 -27 c38 -21 60 -27 102 -25 48 1 58 6 113 54 126 109 179 193 167 262 -6 34 -39 72 -254 297 -365 378 -1128 1131 -1191 1174 -70 47 -95 52 -146 29z m76 -22 c3 -3 17 -12 32 -20 38 -20 89 -63 184 -156 46 -45 101 -96 121 -113 21 -18 32 -29 24 -25 -9 5 -12 4 -7 -3 4 -7 13 -12 20 -12 7 0 22 -11 34 -25 12 -14 19 -25 14 -25 -4 0 7 -9 23 -20 17 -11 26 -20 20 -20 -5 0 4 -9 20 -20 17 -11 26 -20 20 -20 -5 0 4 -9 20 -20 17 -11 26 -20 21 -20 -6 0 5 -11 24 -25 19 -14 30 -25 24 -25 -5 -1 2 -7 16 -15 14 -8 21 -14 16 -15 -6 0 5 -11 24 -25 19 -14 30 -25 24 -25 -5 -1 2 -7 16 -15 14 -8 21 -14 16 -15 -6 0 4 -11 22 -23 17 -13 29 -27 25 -31 -4 -4 3 -9 15 -13 12 -3 22 -9 22 -13 0 -9 89 -99 116 -118 11 -7 13 -10 5 -6 -9 5 -12 3 -7 -4 4 -7 14 -12 23 -12 9 0 14 -3 11 -6 -4 -3 34 -46 83 -95 49 -50 89 -94 89 -100 0 -5 4 -8 8 -6 5 1 69 -60 144 -135 74 -76 133 -138 130 -138 -2 0 16 -21 42 -47 73 -76 73 -127 0 -208 -113 -125 -156 -156 -202 -149 -17 3 -21 0 -16 -8 5 -9 2 -9 -9 1 -9 7 -17 11 -17 7 0 -4 -15 1 -32 11 -33 17 -39 19 -59 22 -5 0 -7 6 -4 12 4 6 -11 1 -34 -10 -23 -12 -41 -28 -41 -36 0 -7 -8 -16 -18 -19 -11 -4 -25 -17 -32 -31 -7 -13 -16 -23 -19 -20 -4 2 -22 -15 -41 -38 -52 -61 -92 -97 -103 -90 -6 3 -7 2 -4 -4 8 -13 -47 -66 -58 -56 -4 5 -6 3 -2 -3 5 -9 -25 -46 -75 -91 -7 -7 -50 -50 -96 -95 -46 -46 -88 -82 -93 -80 -6 1 -8 -2 -5 -7 3 -5 -51 -66 -121 -135 l-127 -126 -59 57 c-32 32 -326 325 -652 651 -375 374 -601 592 -613 592 -23 0 -45 -23 -34 -35 4 -5 2 -5 -4 -2 -7 4 -65 -48 -135 -118 -72 -73 -129 -123 -137 -120 -7 3 -10 0 -7 -6 9 -13 -245 -260 -258 -252 -6 3 -7 1 -4 -4 8 -13 -55 -63 -78 -63 -9 0 -14 -4 -10 -9 3 -6 -3 -10 -12 -10 -10 0 -38 -2 -63 -3 -65 -3 -137 28 -191 81 -54 55 -69 92 -69 178 0 50 5 72 21 94 11 16 18 29 15 29 -3 0 5 10 17 23 22 24 40 44 90 106 15 18 27 30 27 25 0 -5 9 5 20 21 11 17 20 27 20 22 0 -4 19 12 43 35 24 24 42 46 40 51 -3 4 3 7 11 7 8 0 18 5 22 12 5 7 3 8 -6 3 -9 -5 -11 -4 -6 3 4 7 13 12 21 12 8 0 17 5 21 12 5 7 3 8 -7 3 -8 -5 18 21 56 59 39 37 83 74 98 82 18 10 27 21 23 30 -3 8 -1 14 5 14 6 0 22 14 36 30 13 17 30 27 35 23 6 -3 8 -1 5 4 -4 6 0 14 9 17 8 3 13 10 9 15 -3 5 4 12 15 16 11 4 18 11 15 16 -4 5 -2 9 3 9 5 0 29 18 53 40 24 22 48 40 52 40 5 0 5 5 2 10 -3 6 1 10 10 10 9 0 13 5 10 10 -3 6 1 10 9 10 9 0 16 5 16 10 0 6 10 10 23 10 18 0 19 2 7 10 -13 8 -12 10 3 10 10 0 16 4 13 8 -3 5 0 9 7 10 15 1 97 22 117 30 8 3 114 6 235 6 121 1 227 5 235 10 8 6 28 11 45 13 27 3 59 13 135 46 14 6 28 10 33 9 4 -1 7 2 7 8 0 6 3 9 8 8 15 -5 71 25 65 35 -3 6 -1 7 6 3 10 -7 72 29 79 46 2 4 11 8 19 8 9 0 13 3 10 7 -4 3 -2 12 5 20 8 11 6 26 -13 66 -13 29 -26 54 -29 57 -11 10 -3 66 13 97 10 18 31 46 47 63 16 16 27 30 24 30 -3 0 9 12 28 27 18 16 38 33 45 39 6 6 25 17 42 24 17 7 31 16 31 20 0 9 43 8 50 -1z"/> <path d="M1682 4505 c-34 -15 -333 -307 -956 -935 -320 -322 -393 -397 -484 -499 -28 -32 -37 -83 -23 -129 12 -43 99 -143 179 -209 57 -45 57 -45 117 -39 36 4 72 15 93 29 l34 22 362 -355 c198 -196 393 -385 431 -422 l70 -66 137 133 c160 155 211 186 307 186 130 1 232 -64 283 -179 15 -33 19 -61 16 -113 -2 -50 0 -69 10 -69 6 0 12 4 12 8 0 23 86 47 165 47 69 -1 87 -4 134 -30 66 -37 115 -92 141 -162 25 -68 25 -124 0 -198 -11 -32 -18 -60 -15 -63 2 -3 35 -8 72 -11 77 -8 134 -34 179 -83 64 -69 95 -156 86 -246 l-4 -50 191 -188 c192 -189 256 -243 295 -245 136 -9 212 26 261 121 20 38 29 109 21 154 -9 47 -79 126 -349 396 l-108 108 26 28 25 27 238 -234 c130 -129 257 -247 280 -263 95 -65 246 -36 312 61 26 38 39 129 28 189 -11 52 -51 99 -293 344 -106 107 -198 205 -205 218 -14 28 -7 52 16 52 9 0 109 -91 223 -203 268 -265 309 -292 408 -277 69 11 105 32 145 82 69 88 78 164 27 241 -36 54 -274 301 -926 958 l-473 475 -177 -178 c-218 -218 -380 -365 -439 -396 -76 -41 -197 -40 -289 3 -46 21 -111 81 -145 133 -16 26 -31 52 -31 57 -1 6 -5 21 -10 34 -17 43 -19 138 -5 186 22 71 101 161 478 542 191 193 348 356 348 362 0 6 -15 11 -32 12 -18 0 -139 4 -268 9 -252 10 -285 16 -421 78 -78 35 -178 99 -185 117 -3 7 6 36 20 64 31 61 33 108 6 162 -25 48 -143 170 -187 193 -46 23 -112 28 -151 11z m136 -41 c12 -8 22 -12 22 -9 0 3 30 -25 66 -62 76 -78 123 -162 104 -185 -1 -2 -3 -11 -5 -22 -2 -10 -8 -23 -14 -29 -6 -6 -11 -19 -11 -29 0 -10 -4 -18 -9 -18 -5 0 -12 -7 -15 -16 -6 -15 48 -74 67 -74 4 0 6 -4 3 -9 -5 -7 26 -27 47 -29 4 -1 15 -8 23 -17 9 -8 24 -15 34 -15 10 0 22 -5 26 -11 10 -16 94 -50 106 -42 7 3 8 1 4 -5 -4 -6 1 -11 11 -11 17 0 58 -8 58 -11 0 -10 115 -17 355 -24 85 -2 156 -5 156 -5 4 -2 -107 -118 -358 -371 -152 -154 -275 -280 -274 -280 1 0 -24 -27 -56 -61 -63 -67 -108 -140 -111 -180 -1 -15 -5 -25 -9 -22 -4 2 -5 -24 -2 -59 4 -35 7 -75 7 -90 -1 -16 3 -28 8 -28 5 0 9 -9 9 -20 0 -10 10 -29 23 -41 12 -12 15 -19 7 -15 -8 4 -4 -2 9 -13 13 -12 20 -21 17 -21 -4 0 -1 -6 6 -14 7 -8 16 -12 20 -9 4 2 5 -3 2 -11 -3 -9 3 -19 18 -27 13 -6 27 -18 31 -25 4 -8 15 -14 22 -14 8 0 15 -4 15 -9 0 -8 21 -19 55 -27 6 -2 21 -6 35 -10 46 -14 193 -17 185 -4 -4 7 -1 11 6 9 29 -3 50 1 44 11 -3 5 9 13 27 18 18 5 32 15 30 21 -1 7 2 10 8 6 5 -3 10 -1 10 5 0 6 4 8 10 5 5 -3 15 3 22 15 7 11 19 20 26 20 7 0 10 5 7 10 -3 6 -2 10 2 10 13 0 88 73 85 82 -1 5 4 8 11 8 17 0 227 216 219 225 -4 4 -2 5 4 3 6 -2 41 27 78 65 37 37 70 67 74 67 4 -1 21 -12 37 -26 17 -15 23 -23 15 -19 -16 7 15 -24 70 -69 19 -15 28 -25 20 -21 -8 4 2 -9 24 -29 21 -20 43 -36 49 -36 6 0 8 -3 4 -6 -7 -7 15 -34 24 -29 3 2 17 -15 32 -38 15 -22 27 -38 27 -34 0 3 56 -50 125 -118 68 -69 129 -125 135 -125 5 0 10 -5 10 -11 0 -7 73 -84 162 -173 89 -89 162 -163 162 -166 0 -3 13 -18 30 -35 16 -16 26 -23 21 -15 -8 13 -6 13 8 1 9 -7 14 -17 11 -22 -3 -5 -2 -9 3 -9 4 0 19 -10 33 -21 14 -11 18 -17 10 -13 -20 9 -7 -3 52 -50 26 -21 46 -43 45 -49 -1 -6 3 -11 8 -12 12 -1 135 -126 135 -138 0 -4 4 -5 10 -2 6 3 10 1 10 -6 0 -16 77 -99 85 -91 4 4 5 2 4 -3 -2 -6 9 -28 23 -50 24 -36 26 -44 17 -85 -14 -67 -14 -67 -27 -82 -6 -8 -10 -18 -7 -21 3 -4 2 -5 -1 -3 -3 2 -18 -9 -33 -24 -15 -16 -40 -34 -55 -40 -38 -14 -119 -13 -147 3 -43 22 -84 52 -105 74 -12 13 -27 23 -33 23 -7 0 -9 5 -6 10 3 6 2 10 -3 10 -5 0 -40 32 -78 71 -98 101 -95 97 -170 169 -38 36 -72 64 -77 62 -5 -1 -6 2 -2 8 3 5 -10 17 -29 27 -35 16 -36 16 -61 -11 -37 -40 -25 -68 66 -159 43 -42 76 -77 73 -77 -3 0 12 -15 35 -34 22 -18 37 -36 34 -40 -4 -3 0 -6 8 -6 8 0 23 -14 33 -30 9 -17 22 -27 28 -24 7 5 8 2 4 -5 -5 -8 0 -14 13 -18 11 -3 19 -9 16 -13 -3 -5 4 -12 16 -15 11 -4 18 -9 15 -13 -10 -9 26 -42 38 -35 6 3 8 3 5 -1 -4 -4 3 -17 15 -30 44 -46 76 -86 69 -86 -5 0 -2 -4 6 -9 10 -7 14 -27 12 -73 -1 -34 -3 -70 -5 -78 -6 -32 -30 -70 -48 -76 -10 -3 -15 -10 -12 -16 4 -6 2 -8 -4 -4 -6 3 -18 -1 -26 -10 -15 -15 -42 -22 -91 -26 -33 -2 -78 13 -120 41 -46 31 -175 156 -175 171 0 5 -5 10 -12 10 -6 0 -44 35 -85 77 -40 42 -73 73 -73 69 0 -4 -15 9 -32 31 -42 49 -118 119 -138 125 -16 5 -52 -23 -76 -59 -15 -24 -13 -26 104 -144 65 -65 116 -121 114 -124 -3 -3 0 -5 7 -5 7 0 34 -21 60 -47 25 -25 39 -43 31 -39 -8 4 -4 -2 10 -13 14 -11 28 -21 32 -21 5 0 7 -4 5 -10 -1 -5 9 -20 23 -32 14 -13 19 -18 10 -13 -8 6 -1 -7 17 -27 23 -28 31 -44 27 -63 -3 -15 -1 -24 4 -21 14 9 -3 -80 -21 -106 -51 -73 -100 -100 -183 -100 -87 0 -102 11 -330 240 -84 83 -158 152 -164 152 -6 0 -8 5 -5 10 3 6 2 10 -2 10 -5 0 -7 30 -5 66 4 73 -18 160 -46 181 -9 7 -13 13 -9 13 11 0 -25 39 -73 78 -24 20 -41 30 -36 22 6 -12 5 -12 -6 0 -19 23 -72 42 -118 44 -44 1 -45 2 -29 43 40 104 9 231 -78 319 -30 30 -60 54 -67 54 -8 0 -16 5 -18 10 -6 18 -81 39 -142 40 -62 0 -136 -17 -136 -32 0 -5 -5 -6 -10 -3 -6 4 -8 10 -5 15 7 11 -21 113 -42 154 -40 77 -166 165 -235 162 -14 -1 -24 2 -22 6 13 20 -160 -14 -185 -36 -52 -48 -61 -55 -61 -49 0 3 -9 -2 -20 -12 -11 -10 -17 -22 -13 -28 3 -5 2 -7 -4 -4 -5 3 -36 -21 -68 -53 -31 -33 -62 -60 -68 -60 -6 0 -7 -3 -4 -6 4 -4 -10 -19 -29 -34 l-36 -27 -89 89 c-49 48 -94 88 -101 88 -6 0 -9 2 -6 5 4 5 -58 71 -104 111 -7 7 -24 25 -38 40 -14 16 -37 38 -50 50 -14 12 -33 30 -42 40 -9 10 -23 24 -30 30 -7 7 -28 28 -46 48 -19 20 -39 33 -44 30 -6 -4 -8 -3 -5 3 7 12 -23 44 -162 173 -57 52 -111 103 -121 113 -17 18 -19 18 -61 -10 -31 -21 -56 -28 -93 -29 -28 -1 -53 1 -56 5 -3 3 -21 18 -40 33 -43 32 -120 104 -100 93 8 -5 3 3 -11 17 -36 33 -57 68 -60 98 -4 28 18 89 32 91 5 1 15 2 22 3 6 0 13 7 13 14 1 6 2 16 3 21 0 5 20 28 43 50 22 23 37 41 32 41 -5 1 2 7 16 15 14 7 24 16 22 20 -4 8 24 35 36 35 12 0 43 35 37 42 -3 2 14 20 37 39 22 19 46 40 52 47 28 34 74 78 93 91 12 8 21 17 20 20 -3 8 234 241 245 241 4 0 8 5 8 11 0 17 139 151 150 144 6 -3 7 1 4 9 -4 11 2 19 17 25 13 5 21 10 17 10 -11 1 61 71 72 71 6 0 9 3 8 8 -3 9 143 152 156 152 5 0 7 3 4 6 -7 6 72 84 86 84 5 0 7 3 3 6 -7 7 35 53 44 48 4 -2 13 4 20 13 12 14 12 16 -1 9 -8 -4 -4 1 10 11 13 10 49 41 78 68 30 28 61 53 70 57 31 13 107 8 130 -8z"/> <path d="M1399 4313 c-13 -16 -12 -17 4 -4 16 13 21 21 13 21 -2 0 -10 -8 -17 -17z"/> <path d="M4624 4316 c1 -8 5 -18 8 -22 4 -3 5 1 4 10 -1 8 -5 18 -8 22 -4 3 -5 -1 -4 -10z"/> <path d="M3935 4079 c-4 -6 -4 -13 -1 -16 3 -4 6 -1 6 6 0 7 5 9 12 5 7 -4 8 -3 4 4 -9 15 -13 15 -21 1z"/> <path d="M977 3899 c7 -7 15 -10 18 -7 3 3 -2 9 -12 12 -14 6 -15 5 -6 -5z"/> <path d="M5335 3601 c-3 -5 -2 -12 3 -15 5 -3 9 1 9 9 0 17 -3 19 -12 6z"/> <path d="M660 3570 c-9 -6 -10 -10 -3 -10 6 0 15 5 18 10 8 12 4 12 -15 0z"/> <path d="M579 3493 l-24 -28 28 24 c25 23 32 31 24 31 -2 0 -14 -12 -28 -27z"/> <path d="M5419 3483 c-13 -16 -12 -17 4 -4 16 13 21 21 13 21 -2 0 -10 -8 -17 -17z"/> <path d="M429 3343 c-13 -16 -12 -17 4 -4 9 7 17 15 17 17 0 8 -8 3 -21 -13z"/> <path d="M615 2660 c-3 -6 1 -7 9 -4 18 7 21 14 7 14 -6 0 -13 -4 -16 -10z"/> <path d="M4930 2270 c-9 -6 -10 -10 -3 -10 6 0 15 5 18 10 8 12 4 12 -15 0z"/> <path d="M1870 2138 c-60 -30 -384 -348 -409 -403 -25 -54 -26 -135 -3 -189 35 -79 142 -144 220 -133 57 8 64 10 112 44 52 36 317 300 356 355 48 68 46 172 -7 251 -58 88 -175 121 -269 75z m199 -47 c62 -49 84 -99 77 -175 -6 -77 -8 -87 -14 -81 -3 3 -15 -9 -27 -26 -25 -32 -26 -34 -145 -156 -44 -45 -80 -79 -80 -75 -1 4 -7 -4 -15 -18 -8 -14 -14 -22 -15 -19 0 3 -18 -10 -39 -30 -42 -38 -128 -91 -116 -71 5 9 1 9 -16 -1 -13 -7 -24 -12 -24 -12 0 1 -91 46 -95 47 -13 2 -54 44 -68 71 -22 42 -24 132 -5 175 21 45 63 91 76 83 6 -3 7 -1 4 4 -4 6 37 53 90 104 53 52 116 113 140 136 24 24 45 43 48 43 3 0 10 0 17 0 6 0 8 3 5 7 -15 15 28 28 92 27 62 0 72 -3 110 -33z"/> <path d="M1799 2133 c-13 -16 -12 -17 4 -4 9 7 17 15 17 17 0 8 -8 3 -21 -13z"/> <path d="M4775 2111 c-3 -5 -2 -12 3 -15 5 -3 9 1 9 9 0 17 -3 19 -12 6z"/> <path d="M4696 2032 c-3 -5 1 -9 9 -9 8 0 12 4 9 9 -3 4 -7 8 -9 8 -2 0 -6 -4 -9 -8z"/> <path d="M2364 1843 c-36 -5 -167 -123 -370 -333 -243 -252 -228 -231 -232 -314 -6 -107 24 -165 113 -221 40 -25 169 -28 206 -4 99 66 521 496 560 571 10 21 19 52 19 71 0 77 -58 180 -119 212 -30 15 -128 25 -177 18z m107 -45 c8 -12 13 -5 10 14 -1 10 55 -20 69 -37 7 -8 17 -12 23 -8 6 3 7 1 3 -5 -4 -7 -3 -12 2 -12 16 0 40 -63 42 -110 3 -77 1 -87 -25 -111 -13 -13 -25 -27 -25 -32 0 -24 -426 -447 -486 -482 -38 -22 -63 -29 -111 -31 -37 -1 -63 2 -63 8 0 6 -7 7 -16 4 -8 -3 -13 -2 -10 3 3 5 -2 11 -13 14 -34 9 -72 72 -78 130 -8 77 3 123 38 156 16 15 29 31 29 34 0 7 340 347 415 414 32 29 62 50 67 47 5 -3 8 -2 7 3 -3 17 3 19 57 17 34 -1 60 -8 65 -16z"/> <path d="M2143 1755 c0 -8 4 -12 9 -9 5 3 6 10 3 15 -9 13 -12 11 -12 -6z"/> <path d="M2651 1375 c-66 -29 -301 -247 -385 -357 -15 -20 -34 -62 -42 -93 -14 -51 -13 -62 1 -113 44 -151 218 -213 348 -123 70 48 341 331 365 382 71 148 -45 320 -214 319 -22 -1 -54 -7 -73 -15z m134 -27 c22 -6 43 -12 46 -12 3 -1 13 -9 23 -18 10 -10 22 -18 27 -18 6 0 7 -4 4 -10 -3 -5 -3 -10 2 -10 16 0 36 -65 37 -119 1 -70 -23 -114 -106 -193 -33 -32 -57 -58 -52 -58 4 0 -12 -15 -36 -34 -23 -18 -41 -36 -41 -40 1 -4 -13 -19 -31 -34 -52 -42 -86 -80 -79 -87 3 -4 2 -6 -4 -5 -16 3 -55 -12 -51 -19 5 -7 -8 -9 -82 -12 -74 -2 -140 39 -177 110 -22 43 -17 146 8 184 10 15 17 29 17 32 -1 3 19 26 43 50 25 24 42 47 38 50 -3 4 -1 5 5 3 6 -2 47 33 91 77 99 100 122 118 148 120 12 1 19 8 17 17 -2 11 10 19 35 26 52 14 72 14 118 0z"/> <path d="M2892 860 c-53 -24 -192 -162 -222 -220 -80 -158 95 -366 263 -312 96 31 246 184 266 272 40 179 -141 333 -307 260z m136 -15 c3 3 16 -2 30 -11 17 -11 22 -12 17 -3 -5 8 8 -2 27 -22 20 -20 43 -51 53 -69 23 -45 23 -142 -1 -178 -10 -15 -19 -30 -19 -34 0 -16 -137 -138 -160 -144 -15 -4 -22 -11 -18 -18 3 -6 3 -8 -2 -4 -4 4 -16 3 -25 -2 -40 -22 -104 -13 -153 22 -46 32 -52 39 -77 88 -18 36 -21 54 -16 103 3 36 13 68 23 81 10 11 23 26 28 34 9 12 32 35 92 90 13 12 29 22 34 22 6 0 7 6 3 13 -4 6 -4 9 1 5 4 -4 19 1 33 12 13 11 28 17 33 14 5 -3 17 -1 26 4 11 6 26 6 41 1 14 -5 27 -7 30 -4z"/> <path d="M2640 366 c0 -2 8 -10 18 -17 15 -13 16 -12 3 4 -13 16 -21 21 -21 13z"/> </g> </svg>