<?xml version="1.0" standalone="no"?> <!DOCTYPE svg PUBLIC "-//W3C//DTD SVG 20010904//EN" "http://www.w3.org/TR/2001/REC-SVG-20010904/DTD/svg10.dtd"> <svg version="1.0" xmlns="http://www.w3.org/2000/svg" width="446.000000pt" height="446.000000pt" viewBox="0 0 446.000000 446.000000" preserveAspectRatio="xMidYMid meet"> <g transform="translate(0.000000,446.000000) scale(0.100000,-0.100000)" fill="#f8f7f7" stroke="none"> <path d="M1923 4445 c0 -8 4 -12 9 -9 5 3 6 10 3 15 -9 13 -12 11 -12 -6z"/> <path d="M1956 4452 c-3 -5 1 -9 9 -9 8 0 12 4 9 9 -3 4 -7 8 -9 8 -2 0 -6 -4 -9 -8z"/> <path d="M2093 4419 c-182 -17 -395 -75 -538 -147 -291 -146 -459 -373 -510 -692 -8 -52 -15 -123 -15 -157 l0 -61 -44 -22 c-63 -30 -123 -92 -154 -158 -26 -55 -27 -64 -30 -267 -5 -277 6 -330 89 -420 54 -59 144 -98 237 -103 l72 -4 0 488 c0 269 5 542 10 607 30 360 232 594 609 706 200 60 401 75 598 45 384 -57 648 -229 758 -494 55 -135 57 -158 62 -777 l5 -573 57 0 c119 0 240 67 295 163 42 75 48 118 44 352 -3 214 -4 222 -30 277 -30 65 -91 128 -152 158 l-43 20 -6 103 c-22 382 -194 645 -532 814 -213 107 -534 166 -782 142z m110 -29 c4 0 5 5 1 12 -5 7 -3 8 7 2 19 -11 39 -14 39 -5 0 4 7 8 15 8 8 0 12 -5 8 -10 -3 -5 4 -6 17 -2 15 5 20 4 16 -4 -5 -8 0 -8 19 -1 32 12 58 12 30 0 -14 -6 -4 -8 32 -6 29 1 50 -1 47 -5 -4 -7 102 -25 138 -23 11 0 16 -6 15 -19 -3 -27 21 -34 31 -9 5 14 12 17 27 11 11 -4 15 -8 8 -8 -6 -1 -10 -9 -9 -18 3 -16 15 -19 56 -14 5 1 7 8 4 15 -5 13 -2 13 19 3 14 -6 23 -15 21 -19 -2 -4 16 -10 40 -13 25 -4 51 -13 57 -21 7 -9 8 -14 1 -14 -6 0 -12 6 -15 13 -3 8 -8 9 -15 2 -7 -7 -8 -15 -2 -25 7 -11 10 -11 10 -2 0 7 5 10 10 7 6 -4 18 -1 27 7 14 11 16 11 8 -1 -6 -11 -4 -13 9 -8 9 4 15 3 12 -2 -7 -10 22 -24 34 -16 4 3 10 -2 14 -10 3 -8 11 -15 18 -15 7 0 19 -9 26 -21 10 -16 16 -18 27 -9 10 8 15 8 21 -1 4 -7 3 -9 -3 -6 -6 4 -13 0 -16 -8 -5 -11 -1 -12 17 -5 22 8 23 6 21 -30 -2 -37 14 -58 35 -45 4 3 11 -2 14 -11 3 -8 11 -12 17 -8 17 10 -18 34 -39 27 -15 -4 -15 -3 -2 6 13 9 13 11 -1 11 -9 0 -16 7 -16 15 0 21 10 19 25 -5 7 -12 19 -19 27 -18 7 2 14 -1 15 -7 2 -16 42 -55 51 -49 5 3 6 -2 3 -10 -4 -11 2 -19 17 -25 13 -5 18 -10 10 -10 -10 -1 -11 -4 -2 -14 6 -8 9 -17 6 -20 -3 -4 -2 -5 2 -2 9 7 43 -25 43 -40 0 -7 9 -24 21 -39 11 -14 17 -26 14 -26 -4 0 -2 -6 4 -14 8 -9 8 -16 2 -20 -13 -9 -9 -48 5 -42 6 2 17 0 25 -6 11 -8 11 -9 -3 -5 -9 3 -22 -2 -30 -11 -11 -15 -11 -15 2 -5 25 19 42 -1 57 -69 8 -34 15 -67 16 -73 2 -5 7 -16 11 -24 7 -10 6 -12 -4 -6 -10 6 -12 4 -7 -8 4 -10 10 -25 13 -34 5 -16 4 -16 -6 -3 -10 12 -11 12 -4 -5 4 -11 9 -42 12 -69 3 -39 1 -47 -9 -40 -11 6 -12 5 -2 -8 7 -8 10 -18 6 -22 -13 -12 -11 -35 2 -30 7 3 16 0 21 -7 4 -8 3 -10 -4 -5 -7 4 -12 5 -12 2 0 -10 57 -35 64 -29 3 4 6 1 6 -6 0 -7 5 -9 13 -5 9 6 9 4 -1 -8 -9 -11 -10 -18 -2 -23 5 -3 10 -2 10 3 0 6 7 12 15 16 8 3 14 2 14 -2 -3 -17 2 -32 9 -30 14 5 50 -35 45 -49 -4 -9 0 -13 8 -11 8 1 15 0 17 -5 2 -8 -6 -9 -30 -1 -10 3 -15 11 -11 20 3 7 3 14 0 14 -3 0 -7 -7 -11 -15 -3 -10 5 -20 24 -30 53 -28 62 -66 60 -284 0 -107 -3 -197 -5 -202 -3 -4 -1 -11 5 -14 8 -5 8 -11 0 -20 -7 -8 -8 -20 -4 -26 5 -8 3 -9 -6 -4 -10 6 -12 3 -7 -14 3 -13 3 -20 0 -17 -8 8 -43 -39 -43 -57 0 -9 -4 -19 -10 -22 -6 -4 -7 1 -4 12 5 14 4 15 -4 4 -6 -8 -8 -20 -5 -28 3 -7 1 -13 -5 -13 -6 0 -29 -16 -52 -35 -23 -19 -45 -35 -48 -35 -4 0 4 10 18 21 20 16 13 14 -30 -7 -45 -22 -52 -24 -40 -8 14 18 14 18 -5 2 -22 -18 -105 -32 -105 -17 0 5 3 9 8 9 7 0 -3 1061 -11 1115 -2 17 2 41 10 54 8 13 11 21 6 18 -5 -3 -15 -2 -23 4 -13 7 -13 9 -1 9 11 0 9 4 -5 15 -10 8 -16 15 -12 15 4 0 -3 24 -16 53 -13 28 -22 60 -20 70 1 12 -2 17 -11 13 -9 -3 -12 0 -8 11 3 8 0 19 -8 24 -10 6 -10 9 -1 9 6 0 12 9 12 21 0 16 -4 19 -20 14 -15 -5 -20 -2 -20 12 0 15 -2 16 -10 3 -8 -13 -10 -12 -10 3 0 10 -4 16 -8 13 -4 -2 -9 9 -10 25 -1 17 1 28 6 25 5 -3 9 1 9 8 0 7 -6 13 -13 13 -7 0 -11 -3 -9 -7 2 -3 0 -12 -6 -20 -7 -13 -9 -13 -9 1 0 9 -11 22 -25 29 -13 7 -22 17 -19 22 3 4 -2 8 -10 8 -8 0 -18 4 -21 10 -3 5 0 7 9 4 16 -6 17 19 1 33 -4 4 -5 3 -2 -3 4 -7 -2 -14 -13 -17 -13 -3 -18 -1 -13 6 4 7 0 8 -11 4 -9 -4 -15 -3 -13 1 3 4 -5 16 -16 27 -11 11 -16 13 -12 5 7 -12 6 -13 -7 -3 -8 7 -17 12 -19 10 -2 -1 2 4 10 11 13 10 13 12 0 12 -12 0 -12 2 1 10 9 6 10 10 3 10 -7 0 -17 -8 -23 -17 -9 -15 -10 -14 -4 6 5 18 3 22 -7 15 -17 -10 -49 -13 -49 -3 0 3 -12 14 -26 24 -15 9 -23 12 -20 6 4 -6 -7 -3 -23 7 -28 16 -29 18 -13 36 17 19 17 19 -13 0 -21 -13 -26 -14 -18 -4 10 13 7 15 -22 15 -19 -1 -38 -4 -41 -8 -11 -11 -26 -8 -19 3 3 6 5 10 3 10 -29 0 -154 35 -165 45 -8 9 -20 12 -26 8 -16 -10 -47 -11 -42 -2 5 7 -19 19 -38 19 -9 0 -9 -2 0 -8 6 -4 -51 -7 -126 -6 -75 0 -143 4 -150 9 -9 5 -12 4 -8 -2 4 -6 0 -14 -9 -17 -8 -3 -12 -2 -9 4 3 6 1 10 -5 10 -6 0 -8 5 -4 12 4 7 3 8 -4 4 -6 -4 -8 -14 -5 -24 6 -15 5 -15 -10 -3 -12 9 -17 10 -17 2 0 -7 -4 -9 -10 -6 -5 3 -18 1 -28 -4 -13 -7 -23 -6 -32 2 -7 7 -10 7 -7 1 4 -6 -22 -15 -68 -23 -41 -8 -72 -17 -70 -21 3 -5 -4 -6 -15 -3 -12 3 -20 0 -20 -7 0 -7 -8 -10 -20 -7 -11 3 -20 0 -20 -5 0 -6 -9 -3 -19 6 -19 17 -47 14 -36 -4 7 -12 -31 -50 -50 -50 -8 0 -15 -5 -15 -11 0 -5 -4 -8 -9 -4 -5 3 -12 1 -16 -5 -9 -15 -38 -13 -29 3 4 6 4 9 -1 5 -4 -4 -14 -3 -21 3 -9 8 -15 5 -24 -10 -10 -19 -7 -25 13 -22 4 0 7 -3 7 -9 0 -5 -6 -10 -14 -10 -7 0 -31 -17 -52 -37 -21 -21 -32 -30 -24 -20 11 15 11 17 -4 11 -9 -3 -16 -11 -16 -16 0 -15 -57 -68 -65 -60 -3 3 -3 -2 1 -12 5 -13 4 -17 -4 -12 -6 3 -13 -3 -17 -14 -3 -11 -11 -20 -16 -20 -6 0 -8 -4 -4 -9 3 -5 -4 -12 -14 -16 -11 -3 -18 -12 -15 -19 3 -7 -2 -19 -10 -26 -9 -7 -14 -16 -11 -20 3 -4 -6 -15 -20 -24 -17 -11 -25 -13 -25 -5 0 7 -3 10 -6 7 -3 -4 0 -17 7 -29 9 -17 9 -24 0 -27 -6 -2 -11 -13 -11 -23 0 -14 -4 -18 -12 -13 -9 5 -9 2 1 -9 7 -9 9 -17 4 -17 -5 0 -9 -10 -10 -22 0 -13 -6 -45 -13 -73 -8 -35 -14 -220 -17 -603 l-5 -554 -28 4 c-16 2 -27 1 -25 -3 3 -4 -2 -9 -10 -13 -16 -6 -29 9 -20 24 4 7 -3 7 -22 0 -27 -10 -27 -10 -8 6 18 15 18 16 2 10 -10 -3 -23 -6 -28 -6 -6 0 -7 -6 -3 -12 4 -7 -4 -3 -17 8 -13 12 -36 24 -50 28 -15 3 -29 13 -33 21 -4 11 -2 14 6 9 7 -5 8 -3 4 5 -5 7 -15 10 -24 6 -9 -3 -13 -3 -10 1 4 3 -1 15 -11 25 -10 11 -17 32 -16 49 1 23 -1 27 -11 19 -9 -7 -15 -5 -23 9 -7 14 -7 19 4 19 8 0 11 -7 7 -16 -7 -21 2 -12 18 18 10 19 10 22 -1 16 -9 -6 -11 -3 -6 9 5 12 3 16 -5 13 -7 -2 -12 -10 -10 -16 1 -7 -2 -10 -7 -6 -6 3 -8 12 -4 20 3 8 1 15 -3 15 -5 0 -7 92 -4 206 3 119 1 209 -4 214 -11 11 34 31 48 22 5 -3 6 0 2 6 -4 6 -13 9 -21 5 -11 -4 -13 -1 -9 11 3 9 11 13 18 9 6 -4 4 2 -4 12 -8 10 -10 16 -4 12 7 -4 15 0 18 9 4 10 2 13 -7 8 -6 -4 3 6 20 23 18 16 30 33 25 38 -4 4 -1 5 6 1 15 -9 55 27 44 40 -4 4 4 0 18 -9 34 -24 47 -21 19 3 l-24 20 29 -10 c27 -10 28 -9 15 7 -13 15 -12 16 6 9 11 -4 16 -4 13 0 -4 3 -1 12 6 19 8 8 15 53 19 115 4 59 12 109 19 118 8 10 9 13 1 9 -7 -5 -9 0 -6 13 5 19 6 20 19 3 13 -16 13 -15 3 9 -7 15 -16 25 -22 21 -6 -4 -7 -1 -3 6 5 7 15 10 23 7 8 -3 11 -2 8 3 -3 5 -1 12 4 15 5 4 8 14 6 24 -2 9 -4 21 -4 25 -1 5 -7 5 -13 1 -10 -6 -10 -4 0 7 6 7 12 20 12 30 0 9 11 28 24 42 14 15 20 29 14 35 -5 5 0 8 14 8 13 -1 22 4 21 12 -2 6 1 12 5 12 5 0 9 7 9 16 0 15 -2 15 -13 0 -8 -11 -14 -13 -19 -7 -3 6 -1 11 4 11 6 0 11 6 11 13 0 20 77 100 88 93 6 -3 9 2 7 11 -3 24 13 53 29 53 8 0 19 7 26 15 7 8 15 13 19 11 4 -3 7 4 7 14 0 16 -3 15 -23 -6 -12 -13 -25 -24 -29 -24 -8 0 45 55 55 56 21 3 41 18 37 29 -3 9 3 12 19 10 14 -1 22 1 20 5 -3 4 5 10 16 13 12 3 18 10 14 16 -3 7 0 8 9 5 9 -4 16 -1 16 6 0 7 7 10 14 7 10 -4 13 -1 10 8 -4 10 2 13 20 11 15 -2 29 1 32 5 3 5 10 9 15 9 6 0 7 -5 3 -12 -4 -7 -3 -8 5 -4 9 6 9 11 0 22 -11 13 -6 18 15 15 4 -1 19 5 32 14 13 8 35 15 49 15 14 0 25 4 25 9 0 9 27 22 58 27 11 2 17 -10 13 -30 -1 -5 4 -4 12 2 8 7 18 8 22 4 5 -4 4 -1 0 7 -6 10 -4 13 7 9 9 -4 15 0 15 8 0 12 -3 12 -22 0 -16 -11 -22 -11 -22 -2 0 7 5 13 11 14 6 0 29 6 51 12 22 5 62 12 89 15 28 3 52 8 55 12 3 5 45 8 94 8 73 0 86 2 81 15 -4 12 -3 13 7 3 7 -7 17 -13 22 -13z m407 -60 c0 -5 -4 -10 -10 -10 -5 0 -10 5 -10 10 0 6 5 10 10 10 6 0 10 -4 10 -10z m73 -13 c3 -7 -3 -13 -14 -13 -13 0 -15 3 -7 13 6 7 12 13 13 13 2 0 5 -6 8 -13z m-968 -118 c11 -16 1 -19 -13 -3 -7 8 -8 14 -3 14 5 0 13 -5 16 -11z m-155 -91 c0 -7 -5 -6 -13 1 -8 6 -17 8 -21 4 -4 -4 -4 0 0 10 5 14 9 15 20 6 8 -6 14 -16 14 -21z m-295 -97 c3 -5 2 -12 -3 -15 -5 -3 -9 1 -9 9 0 17 3 19 12 6z m-90 -169 c-3 -3 -11 0 -18 7 -9 10 -8 11 6 5 10 -3 15 -9 12 -12z"/> <path d="M2324 4299 c-3 -6 -3 -13 0 -16 3 -4 6 -1 6 5 0 6 7 9 15 6 8 -4 15 -4 15 -1 0 11 -30 16 -36 6z"/> <path d="M2488 4283 c7 -3 16 -2 19 1 4 3 -2 6 -13 5 -11 0 -14 -3 -6 -6z"/> <path d="M2770 4195 c-7 -9 -8 -15 -2 -15 5 0 12 7 16 15 3 8 4 15 2 15 -2 0 -9 -7 -16 -15z"/> <path d="M1467 4165 c-16 -12 -16 -13 -1 -19 9 -4 19 -4 22 -1 3 3 -1 5 -9 5 -12 0 -12 2 1 10 8 5 12 11 10 14 -3 2 -13 -1 -23 -9z"/> <path d="M3153 4014 c13 -16 15 -23 6 -26 -9 -3 -9 -6 2 -10 23 -9 19 19 -5 39 -21 18 -21 18 -3 -3z"/> <path d="M3206 3925 c-6 -17 9 -29 24 -20 14 9 12 22 -4 28 -8 3 -17 -1 -20 -8z"/> <path d="M3269 3552 c9 -7 10 -11 2 -15 -7 -4 -8 -5 -1 -3 16 2 14 20 -2 24 -10 3 -10 2 1 -6z"/> <path d="M968 3273 c7 -3 16 -2 19 1 4 3 -2 6 -13 5 -11 0 -14 -3 -6 -6z"/> <path d="M3525 2609 c-4 -6 -5 -12 -2 -15 2 -3 7 2 10 11 7 17 1 20 -8 4z"/> <path d="M3546 2594 c-5 -14 -4 -15 9 -4 17 14 19 20 6 20 -5 0 -12 -7 -15 -16z"/> <path d="M936 2541 c-3 -5 2 -15 12 -22 15 -12 16 -12 5 2 -7 9 -10 19 -6 22 3 4 4 7 0 7 -3 0 -8 -4 -11 -9z"/> <path d="M1636 4367 c3 -10 9 -15 12 -12 3 3 0 11 -7 18 -10 9 -11 8 -5 -6z"/> <path d="M2720 4376 c0 -2 8 -10 18 -17 15 -13 16 -12 3 4 -13 16 -21 21 -21 13z"/> <path d="M2835 4359 c-4 -6 -4 -13 -1 -16 3 -4 6 -1 6 6 0 8 6 11 16 7 8 -3 12 -2 9 4 -8 13 -22 13 -30 -1z"/> <path d="M1474 4289 c-3 -6 -3 -13 0 -16 3 -4 6 -1 6 5 0 6 7 9 15 6 8 -4 15 -4 15 -1 0 11 -30 16 -36 6z"/> <path d="M2997 4293 c-3 -5 5 -8 18 -8 13 0 21 3 18 8 -2 4 -10 7 -18 7 -8 0 -16 -3 -18 -7z"/> <path d="M1366 4211 c-4 -5 -2 -12 3 -15 5 -4 12 -2 15 3 4 5 2 12 -3 15 -5 4 -12 2 -15 -3z"/> <path d="M3054 4212 c4 -3 14 -7 22 -8 9 -1 13 0 10 4 -4 3 -14 7 -22 8 -9 1 -13 0 -10 -4z"/> <path d="M1846 4171 c-3 -5 2 -15 12 -22 15 -12 16 -12 5 2 -7 9 -10 19 -6 22 3 4 4 7 0 7 -3 0 -8 -4 -11 -9z"/> <path d="M1880 4170 c-8 -5 -10 -10 -5 -10 6 0 17 5 25 10 8 5 11 10 5 10 -5 0 -17 -5 -25 -10z"/> <path d="M2580 4166 c0 -2 8 -10 18 -17 15 -13 16 -12 3 4 -13 16 -21 21 -21 13z"/> <path d="M3168 4113 c6 -2 10 -8 7 -13 -3 -4 2 -13 9 -19 11 -9 14 -9 12 1 -3 21 -16 38 -29 37 -9 0 -8 -2 1 -6z"/> <path d="M1226 4095 c-11 -8 -15 -15 -9 -15 6 0 16 7 23 15 16 19 11 19 -14 0z"/> <path d="M1657 4087 c-3 -8 0 -14 7 -14 7 0 13 6 13 14 0 7 -4 13 -8 13 -4 0 -9 -6 -12 -13z"/> <path d="M2736 4073 c-6 -14 -5 -15 5 -6 7 7 10 15 7 18 -3 3 -9 -2 -12 -12z"/> <path d="M2006 4048 c3 -5 10 -6 15 -3 13 9 11 12 -6 12 -8 0 -12 -4 -9 -9z"/> <path d="M2297 4043 c3 -7 6 -13 8 -13 2 0 5 6 8 13 3 8 -1 14 -8 14 -7 0 -11 -6 -8 -14z"/> <path d="M2366 4048 c3 -5 10 -6 15 -3 13 9 11 12 -6 12 -8 0 -12 -4 -9 -9z"/> <path d="M2457 4046 c-4 -10 -1 -13 8 -9 8 3 12 9 9 14 -7 12 -11 11 -17 -5z"/> <path d="M2030 4036 c0 -2 7 -7 16 -10 8 -3 12 -2 9 4 -6 10 -25 14 -25 6z"/> <path d="M2465 4021 c-3 -5 -2 -12 3 -15 5 -3 9 1 9 9 0 17 -3 19 -12 6z"/> <path d="M2101 4009 c-270 -32 -500 -160 -612 -344 -41 -68 -66 -130 -91 -222 -21 -82 -23 -106 -23 -363 0 -271 3 -308 41 -499 18 -91 20 -95 86 -157 99 -93 241 -173 376 -210 59 -16 65 -16 98 -1 52 25 364 25 414 -1 101 -50 84 -197 -25 -222 -51 -12 -308 -12 -359 -1 -21 5 -53 23 -70 39 -18 17 -60 39 -101 52 -88 28 -218 86 -268 118 -20 14 -39 23 -42 21 -13 -14 128 -269 187 -337 15 -18 28 -37 28 -42 0 -5 -161 -89 -357 -186 -421 -207 -515 -266 -668 -419 -228 -227 -357 -491 -381 -782 -8 -91 5 -127 58 -166 70 -50 164 -75 483 -127 291 -47 571 -78 890 -100 195 -13 713 -13 913 0 388 26 824 81 1114 141 161 33 206 48 256 86 53 40 66 75 58 166 -25 294 -150 551 -381 782 -151 152 -245 211 -667 419 -197 97 -358 179 -358 183 0 3 17 29 38 57 112 148 205 352 262 578 44 172 61 308 67 538 6 238 -3 348 -37 472 -82 296 -329 482 -700 528 -95 11 -123 11 -229 -1z m185 -21 c5 -7 3 -8 -6 -3 -8 5 -11 4 -7 -1 3 -5 31 -11 62 -12 32 -1 77 -7 102 -12 24 -6 48 -8 53 -5 4 3 6 -3 3 -14 -6 -25 43 -36 57 -12 9 15 9 15 10 0 0 -18 22 -31 57 -33 12 -1 19 3 15 9 -9 15 31 -17 46 -37 7 -10 21 -18 30 -17 12 0 9 3 -7 10 -13 5 -21 12 -18 15 7 7 47 -14 47 -26 0 -5 -6 -10 -12 -13 -7 -2 -3 -2 10 0 12 2 22 -2 22 -8 0 -7 3 -10 6 -6 3 3 14 -3 25 -14 11 -11 25 -17 32 -13 7 4 9 4 5 -1 -4 -4 0 -14 10 -21 15 -12 14 -13 -8 -8 -17 3 -13 -1 10 -10 19 -8 31 -15 27 -15 -8 -1 5 -20 39 -54 12 -12 30 -39 41 -59 11 -21 24 -34 28 -30 5 4 5 1 0 -7 -4 -8 -2 -17 6 -22 11 -7 11 -9 1 -9 -7 0 -10 -5 -7 -10 4 -6 12 -7 18 -3 7 4 5 -2 -3 -12 -14 -17 -13 -18 5 -11 11 4 16 4 12 0 -4 -4 -2 -13 4 -21 8 -8 8 -13 1 -13 -6 0 -12 6 -15 13 -3 6 -4 2 -4 -10 1 -12 4 -20 7 -18 3 1 12 -4 20 -13 13 -14 13 -15 0 -10 -8 3 -21 -1 -28 -8 -10 -12 -9 -13 10 -11 21 2 24 -4 35 -78 22 -151 10 -622 -16 -648 -7 -7 -7 -15 0 -24 7 -8 8 -13 1 -13 -14 0 -22 -38 -8 -44 6 -3 2 -4 -9 -3 -11 1 -24 7 -28 12 -5 6 -7 4 -4 -5 2 -8 10 -15 18 -15 20 0 19 -44 -1 -55 -20 -11 -21 -33 -3 -51 12 -12 6 -42 -6 -34 -5 2 -7 -8 -6 -23 1 -15 -2 -30 -7 -33 -5 -3 -10 -16 -11 -27 -1 -12 -6 -22 -12 -22 -6 0 -16 -5 -23 -12 -10 -10 -7 -15 10 -25 l23 -12 -24 -1 c-21 0 -22 -2 -10 -17 10 -11 10 -14 2 -9 -12 7 -17 -6 -16 -41 1 -7 -3 -10 -8 -7 -5 3 -8 -3 -7 -13 1 -10 -6 -37 -16 -61 -14 -32 -23 -42 -35 -37 -12 5 -13 4 -4 -6 9 -9 8 -19 -5 -43 -9 -17 -15 -34 -14 -38 1 -5 -2 -8 -8 -8 -5 0 -10 -7 -10 -15 0 -8 -9 -24 -19 -34 -11 -11 -17 -22 -14 -25 6 -6 -13 -10 -30 -7 -5 1 -6 -3 -2 -9 3 -6 12 -7 18 -3 7 4 5 -2 -3 -12 -22 -28 -54 -62 -47 -49 3 6 0 11 -8 11 -11 0 -12 -5 -3 -20 6 -12 6 -17 0 -13 -5 3 -13 -2 -16 -11 -8 -19 32 -66 50 -59 7 3 10 -5 8 -20 -1 -13 2 -22 7 -18 5 3 7 10 4 15 -4 5 0 9 8 9 8 0 17 -8 20 -19 3 -14 11 -17 31 -14 15 3 26 1 26 -5 0 -6 16 -16 34 -23 19 -7 32 -17 29 -22 -4 -6 3 -8 16 -4 19 5 20 3 9 -10 -12 -14 -11 -15 9 -5 17 9 22 9 26 -3 4 -10 1 -12 -11 -9 -14 5 -15 4 -2 -4 10 -8 19 -7 29 1 12 9 13 9 7 0 -5 -9 -1 -13 11 -13 10 0 28 -7 39 -15 12 -8 25 -11 29 -7 5 4 5 1 1 -5 -10 -18 2 -33 19 -27 8 4 12 11 8 18 -4 6 1 5 10 -3 18 -15 23 -26 7 -16 -15 9 -12 -1 4 -14 11 -9 16 -9 22 0 5 8 3 9 -6 4 -9 -5 -11 -4 -6 3 5 8 16 5 36 -10 16 -12 39 -22 50 -23 11 -1 27 -10 36 -21 8 -10 13 -14 10 -8 -3 6 1 11 9 11 10 0 11 -5 4 -19 -5 -10 -7 -18 -4 -18 13 0 20 6 17 15 -2 5 5 2 15 -6 23 -20 79 -39 89 -31 4 4 3 1 -1 -7 -6 -11 -4 -13 8 -8 9 3 19 1 23 -5 4 -6 3 -8 -3 -5 -5 3 -10 0 -10 -8 0 -10 5 -11 19 -4 13 7 18 6 18 -2 0 -7 3 -9 7 -6 3 4 12 -1 20 -11 8 -9 11 -11 7 -3 -5 9 -3 12 4 7 7 -4 12 -14 12 -22 0 -13 12 -18 32 -15 4 0 4 -9 -1 -22 -8 -20 -5 -22 25 -23 19 -1 43 -9 53 -18 10 -9 21 -13 25 -9 4 5 6 1 4 -7 -2 -9 3 -14 11 -12 12 3 12 0 2 -12 -10 -12 -9 -14 6 -11 10 1 17 8 15 15 -1 6 2 9 7 6 5 -4 8 -15 6 -26 -3 -14 2 -20 14 -20 10 0 25 -8 32 -17 13 -16 12 -17 -4 -4 -15 12 -17 12 -11 -3 3 -9 13 -16 21 -16 8 0 11 -5 8 -11 -4 -6 0 -9 8 -7 9 2 16 0 16 -5 0 -4 7 -20 15 -36 9 -16 12 -32 8 -36 -4 -5 -1 -5 6 -1 9 5 9 13 2 26 -7 13 -7 21 0 25 6 4 9 3 8 -2 -4 -14 13 -54 21 -49 4 3 15 -11 26 -30 10 -19 21 -34 26 -34 4 0 10 -7 13 -16 6 -15 4 -15 -11 -3 -16 13 -17 12 -4 -4 8 -10 19 -16 26 -13 6 2 17 -6 25 -17 12 -20 12 -21 -3 -8 -10 8 -17 9 -17 3 0 -6 6 -15 14 -19 7 -4 19 -19 26 -32 6 -13 7 -21 2 -17 -6 3 -9 -2 -8 -11 2 -9 9 -19 17 -21 11 -3 11 -1 -1 7 -8 6 -10 11 -5 11 20 0 32 -15 30 -37 -1 -13 1 -23 5 -23 4 0 19 -22 33 -50 14 -27 23 -50 18 -50 -4 0 -8 -6 -8 -14 0 -9 6 -12 16 -8 14 5 14 3 2 -11 -7 -9 -9 -17 -3 -17 5 0 13 -7 16 -16 5 -12 1 -14 -17 -9 -15 4 -18 4 -8 -3 8 -6 10 -15 6 -23 -6 -11 -5 -12 6 -1 20 18 28 15 21 -10 -3 -12 -1 -19 4 -15 12 7 13 -1 19 -142 4 -96 3 -112 -10 -107 -23 9 -29 -13 -8 -36 10 -12 12 -18 5 -14 -8 5 -16 -1 -21 -16 -6 -13 -10 -17 -11 -8 0 12 -4 11 -15 -4 -8 -11 -20 -16 -30 -12 -9 3 -13 2 -10 -4 3 -6 -1 -10 -10 -10 -9 0 -28 -7 -43 -16 -25 -15 -25 -15 -8 0 16 13 17 16 4 16 -8 0 -21 -6 -27 -14 -10 -11 -58 -22 -137 -30 -11 -1 -26 -6 -33 -10 -7 -4 -15 -5 -18 -2 -3 3 -15 0 -27 -6 -26 -15 -104 -20 -111 -7 -4 5 2 6 12 2 10 -3 15 -3 12 1 -17 18 -50 13 -69 -11 -11 -14 -20 -21 -20 -14 0 13 -37 15 -42 2 -1 -5 -43 -15 -93 -21 -49 -7 -97 -14 -105 -17 -30 -11 -40 -11 -33 0 4 7 -4 5 -18 -5 -17 -11 -31 -13 -40 -7 -18 11 -32 11 -25 0 7 -10 -20 -9 -30 2 -4 4 -14 7 -23 7 -14 0 -14 -2 -1 -10 13 -8 12 -10 -5 -11 -11 -1 -27 -2 -35 -3 -8 -1 -21 3 -29 8 -21 16 -43 16 -37 1 2 -7 -1 -16 -8 -18 -8 -3 -13 1 -12 10 2 25 -51 26 -69 0 -14 -19 -18 -20 -57 -10 -32 9 -45 9 -50 0 -6 -9 -8 -8 -8 2 0 11 -4 9 -15 -5 -11 -14 -14 -15 -15 -4 0 13 -1 13 -10 0 -8 -13 -75 -15 -495 -17 -287 0 -483 3 -479 8 3 5 0 9 -6 9 -7 0 -10 6 -7 13 3 7 -4 12 -18 12 -23 0 -23 0 -4 -18 26 -24 24 -31 -4 -12 -17 11 -35 13 -74 6 -31 -4 -57 -4 -65 2 -9 6 -7 7 7 2 15 -5 17 -3 8 6 -6 6 -17 8 -24 3 -21 -13 -91 -15 -83 -2 5 8 1 9 -10 5 -14 -6 -17 -3 -12 10 6 17 5 17 -7 1 -8 -10 -16 -16 -18 -14 -2 2 -38 7 -79 11 -90 9 -102 10 -210 25 -47 6 -93 12 -102 13 -20 1 -35 30 -19 35 6 2 9 8 5 13 -3 5 -12 2 -20 -6 -9 -8 -12 -19 -9 -25 3 -5 1 -10 -4 -10 -6 0 -11 6 -11 13 0 9 -2 9 -8 0 -4 -7 -17 -11 -29 -10 -16 1 -19 5 -12 13 7 8 6 15 -2 20 -8 4 -9 3 -5 -4 4 -7 1 -12 -9 -12 -10 0 -13 -5 -9 -12 4 -7 3 -8 -5 -4 -9 6 -9 11 -1 21 8 10 8 15 -1 21 -8 5 -9 3 -4 -6 6 -10 4 -12 -9 -7 -9 4 -15 3 -12 -2 3 -5 -1 -11 -9 -15 -8 -3 -17 -1 -20 4 -3 5 -15 7 -26 5 -15 -3 -19 0 -15 10 3 9 0 12 -9 8 -8 -3 -13 -8 -10 -12 2 -4 -2 -8 -9 -8 -9 0 -12 7 -9 16 5 13 3 13 -7 4 -8 -8 -20 -9 -36 -3 -13 5 -24 7 -24 4 0 -4 -6 -2 -12 4 -12 9 -109 28 -135 25 -7 0 -11 8 -10 20 1 11 -5 22 -13 24 -13 4 -13 3 0 -6 18 -12 6 -26 -24 -26 -14 -1 -23 5 -22 13 1 8 -6 17 -14 19 -13 4 -13 3 0 -6 10 -7 11 -11 3 -11 -7 0 -17 8 -22 18 -5 10 -20 18 -33 19 -12 1 -24 7 -26 13 -2 5 -8 8 -13 4 -5 -3 -9 -1 -9 5 0 5 4 12 10 16 15 9 0 34 -18 28 -13 -6 -13 -8 4 -15 18 -8 18 -8 -1 -5 -11 2 -19 7 -19 13 1 5 5 31 9 58 5 37 4 46 -6 41 -8 -6 -10 -4 -5 4 5 7 14 10 22 7 8 -3 11 0 7 10 -3 7 -10 14 -15 14 -7 0 -7 4 0 12 6 7 12 17 14 23 1 5 5 9 8 8 3 -1 6 7 6 17 0 15 -3 17 -15 7 -12 -9 -13 -9 -7 0 7 12 16 60 19 95 1 9 3 15 5 13 2 -2 12 4 22 13 13 11 16 20 10 27 -7 8 -2 21 15 39 23 24 23 27 5 21 -24 -8 -26 7 -3 26 9 8 14 9 10 3 -3 -6 0 -11 7 -11 11 0 12 4 3 18 -6 10 -15 15 -21 12 -5 -3 -6 -1 -2 5 4 7 14 12 23 12 9 0 13 6 9 15 -3 8 -2 15 2 15 4 0 13 13 20 28 7 16 24 34 38 41 24 11 25 31 1 31 -8 0 -8 -3 1 -9 11 -7 11 -9 -1 -14 -8 -3 -14 0 -13 6 3 22 17 37 28 31 6 -4 8 -2 4 4 -6 10 10 26 26 27 3 0 10 4 15 9 5 5 3 6 -5 2 -6 -4 -12 -2 -12 3 0 10 13 15 31 13 3 -1 6 5 6 13 0 8 -3 12 -7 10 -4 -2 -7 2 -7 9 0 8 6 12 13 9 6 -2 15 1 20 8 5 8 3 10 -7 4 -11 -7 -12 -6 -2 7 7 8 10 18 6 22 -4 4 0 4 9 1 11 -5 22 2 35 22 10 15 23 34 30 41 7 8 11 18 8 23 -7 10 24 0 43 -14 8 -6 12 -6 12 2 0 6 -4 11 -8 11 -4 0 -8 9 -8 19 0 11 4 17 9 14 4 -2 14 1 22 7 8 6 20 8 26 4 7 -4 9 -3 5 4 -3 6 2 15 11 21 10 6 14 11 10 11 -5 0 -23 -9 -40 -21 l-32 -21 30 26 c17 15 28 32 27 39 -2 6 0 9 4 5 4 -4 14 -2 22 5 11 8 14 8 9 0 -4 -6 -4 -13 0 -16 5 -2 1 -2 -7 0 -11 2 -11 0 2 -10 10 -8 14 -18 10 -22 -4 -5 -2 -5 5 -2 6 4 10 15 8 25 -1 9 3 23 9 31 9 12 8 13 -4 7 -9 -4 -8 -2 2 7 10 8 14 18 10 23 -4 5 2 1 14 -9 28 -23 31 -22 50 16 19 36 34 49 50 43 6 -2 11 2 11 9 0 8 -7 11 -16 7 -9 -3 -13 -2 -10 2 9 10 51 17 45 7 -3 -4 1 -8 8 -8 8 0 12 6 9 12 -2 8 5 12 19 11 14 -1 23 -7 23 -18 0 -9 4 -20 9 -25 5 -4 6 -3 2 5 -4 6 -3 12 2 12 5 0 9 7 9 15 0 8 -4 12 -9 9 -4 -3 -8 -3 -8 0 0 2 -3 13 -6 23 -5 15 -4 15 5 3 7 -10 11 -11 11 -2 0 6 6 12 14 12 7 0 19 7 26 15 9 11 16 12 25 5 9 -8 17 -7 26 3 8 7 22 16 32 20 9 3 17 11 17 17 0 6 5 8 10 5 6 -3 10 -1 10 4 0 6 5 11 11 11 7 0 17 7 23 15 8 11 15 12 26 4 12 -9 11 -10 -5 -4 -15 5 -17 3 -8 -6 14 -14 36 -2 29 17 -3 7 0 16 6 20 7 4 8 3 4 -4 -4 -7 -2 -12 4 -12 6 0 8 -5 4 -12 -6 -10 -4 -10 8 0 13 10 17 10 22 -3 4 -12 10 -14 25 -5 19 10 21 35 6 60 -4 6 -3 10 2 9 24 -4 43 2 37 13 -4 6 -3 8 3 5 5 -3 21 1 34 11 28 20 49 24 49 10 0 -6 -7 -8 -15 -5 -8 4 -17 2 -20 -3 -3 -4 6 -7 20 -5 28 3 68 38 57 51 -4 4 -2 4 4 1 6 -4 19 2 29 13 14 15 21 17 32 9 10 -9 12 -9 8 3 -5 11 2 14 32 11 27 -2 34 0 23 7 -13 8 -12 10 3 10 10 0 15 5 12 10 -3 6 0 10 8 10 31 0 31 72 1 84 -8 3 -14 18 -15 33 0 15 -3 22 -6 16 -6 -17 -26 -17 -21 -1 4 12 -11 35 -46 69 -16 15 -17 22 -7 32 10 10 11 8 6 -5 -4 -10 -3 -18 3 -18 6 0 9 8 8 18 -2 9 -8 17 -14 17 -15 0 -74 84 -68 98 2 7 5 4 5 -5 1 -10 7 -15 14 -12 8 3 51 -7 98 -22 46 -15 89 -27 94 -25 6 1 4 -3 -2 -10 -10 -10 -16 -10 -25 -1 -7 7 -19 12 -27 12 -8 0 -12 -3 -8 -6 3 -3 7 -4 10 -2 2 1 10 -2 18 -9 8 -7 32 -13 52 -15 25 -1 37 -7 38 -18 2 -18 5 -42 8 -52 0 -4 12 -3 26 2 18 7 36 5 67 -9 35 -14 75 -18 203 -20 172 -2 257 9 278 38 12 18 16 20 40 22 9 0 9 2 0 5 -8 4 -8 15 4 41 14 34 14 50 -1 113 -6 27 -52 70 -75 70 -8 0 -11 6 -7 15 3 9 0 15 -10 15 -8 0 -13 4 -10 9 3 5 -1 11 -9 14 -11 5 -12 1 -6 -16 7 -19 5 -23 -10 -24 -10 -1 -21 2 -24 8 -4 5 -76 9 -161 9 -144 0 -157 -2 -185 -22 -28 -21 -31 -21 -87 -7 -39 10 -56 19 -54 28 3 12 0 12 -12 2 -10 -8 -16 -9 -21 -1 -3 5 -15 10 -26 10 -10 0 -19 5 -19 10 0 6 -3 9 -7 8 -13 -4 -94 45 -84 51 5 3 2 13 -7 21 -14 13 -15 12 -9 -4 6 -15 4 -17 -10 -11 -10 4 -24 8 -30 8 -7 0 -14 4 -14 9 -1 4 -2 12 -3 17 0 5 -5 13 -10 18 -5 5 -6 3 -2 -4 12 -21 -3 -15 -30 12 -14 14 -30 22 -36 19 -7 -4 -8 -2 -4 5 6 9 14 8 33 -4 19 -13 28 -14 37 -5 6 6 7 11 1 10 -20 -4 -36 0 -31 9 3 4 -8 7 -25 5 -16 -2 -28 0 -25 5 3 5 -1 11 -9 15 -8 3 -15 10 -15 16 0 6 6 8 13 4 7 -4 9 -3 4 2 -5 5 -13 10 -18 10 -22 3 -23 5 -9 14 13 8 12 10 -2 10 -10 0 -17 3 -17 8 4 25 -2 62 -10 57 -6 -3 -8 8 -6 25 3 20 0 28 -6 24 -7 -4 -6 2 1 16 7 12 8 20 3 17 -5 -3 -10 9 -10 26 -1 18 -4 46 -8 62 -4 17 -9 144 -12 283 l-4 254 23 -7 c23 -6 23 -6 2 7 -12 7 -19 19 -17 26 3 6 10 9 16 5 7 -4 6 1 -2 11 -12 14 -12 19 -1 29 9 9 11 9 6 0 -3 -6 -3 -14 2 -17 4 -2 7 26 6 62 -1 37 2 72 5 77 4 6 13 29 21 53 12 38 20 46 41 44 4 -1 4 8 1 20 -4 16 -2 19 8 13 9 -5 11 -4 6 4 -4 6 -3 17 2 24 5 7 8 20 7 29 -2 11 2 15 13 11 11 -5 14 -2 10 9 -4 9 0 15 8 15 21 0 17 -14 -8 -31 -12 -9 -18 -16 -13 -16 17 0 54 42 48 56 -3 8 -10 11 -17 7 -6 -3 -7 -2 -3 3 5 5 25 10 45 10 20 1 38 3 40 4 1 1 7 3 12 4 13 1 13 12 2 32 -6 12 -11 13 -16 5 -4 -6 -2 -11 4 -11 6 0 8 -5 4 -11 -4 -8 -9 -7 -15 2 -5 9 -9 10 -9 3 0 -7 -6 -14 -13 -17 -8 -3 -14 1 -14 9 0 7 3 11 7 9 4 -2 18 7 30 20 13 14 30 25 37 25 8 0 11 4 8 10 -4 6 1 7 11 3 10 -3 15 -2 12 3 -6 9 23 43 30 35 3 -3 56 15 83 29 9 5 28 7 42 6 15 -2 24 0 22 5 -8 11 17 24 42 21 13 -2 27 6 37 20 12 17 16 19 16 6 0 -9 -6 -18 -12 -21 -7 -2 -9 -8 -5 -13 7 -7 21 6 29 28 2 4 28 10 58 14 30 3 59 9 63 11 5 3 40 7 80 9 39 2 73 7 76 9 7 7 9 6 17 -7z m-341 -38 c-3 -5 -12 -10 -18 -10 -7 0 -6 4 3 10 19 12 23 12 15 0z m586 -17 c12 -16 12 -17 -2 -6 -9 7 -20 9 -24 5 -5 -4 -5 -1 -1 6 9 16 11 15 27 -5z m-670 -16 c-10 -9 -11 -8 -5 6 3 10 9 15 12 12 3 -3 0 -11 -7 -18z m730 -4 c13 -16 12 -17 -3 -4 -17 13 -22 21 -14 21 2 0 10 -8 17 -17z m307 -218 c-3 -3 -9 2 -12 12 -6 14 -5 15 5 6 7 -7 10 -15 7 -18z m97 -1155 c3 -6 -1 -7 -9 -4 -18 7 -21 14 -7 14 6 0 13 -4 16 -10z m-55 -184 c0 -3 -4 -8 -10 -11 -5 -3 -10 -1 -10 4 0 6 5 11 10 11 6 0 10 -2 10 -4z m-1033 -331 c5 -4 2 -5 -4 -1 -8 4 -13 1 -13 -8 0 -8 6 -13 13 -10 7 2 21 -3 32 -11 19 -16 19 -16 -2 -6 -15 8 -30 8 -48 1 -24 -9 -25 -8 -15 10 7 14 7 20 0 20 -5 0 -10 4 -10 8 0 11 37 9 47 -3z m-481 -407 c4 -5 1 -8 -7 -8 -11 0 -12 -2 -1 -9 11 -7 11 -9 -2 -14 -9 -4 -15 -2 -13 3 1 5 -6 15 -16 22 -17 13 -17 14 6 13 14 0 29 -3 33 -7z m-478 -243 c-6 -14 -15 -25 -20 -25 -5 0 -2 10 7 23 8 13 12 27 8 32 -5 4 -3 5 4 1 9 -5 10 -13 1 -31z m2601 -8 c8 -11 6 -13 -9 -12 -11 1 -23 5 -27 10 -5 4 -2 5 5 1 6 -4 12 -2 12 3 0 15 5 14 19 -2z m526 -1018 c-7 -10 -35 -1 -35 11 0 5 9 6 20 3 11 -3 17 -9 15 -14z m-545 -160 c-7 -11 -14 -18 -17 -15 -3 3 0 12 7 21 18 21 23 19 10 -6z m-590 -73 c-4 -4 -16 -4 -26 2 -16 9 -14 10 8 9 15 -1 23 -6 18 -11z m-125 -24 c-3 -3 -11 0 -18 7 -9 10 -8 11 6 5 10 -3 15 -9 12 -12z m-1110 -2 c3 -5 2 -10 -4 -10 -5 0 -13 5 -16 10 -3 6 -2 10 4 10 5 0 13 -4 16 -10z"/> <path d="M1900 3920 c0 -12 26 -19 39 -10 9 5 4 9 -13 12 -14 3 -26 2 -26 -2z"/> <path d="M1983 3916 c-9 -11 -9 -15 0 -19 7 -3 14 3 14 14 2 22 2 22 -14 5z"/> <path d="M1734 3849 c-3 -6 -1 -16 5 -22 6 -6 11 -9 12 -6 0 2 2 12 4 22 4 19 -10 23 -21 6z"/> <path d="M1571 3676 c-7 -8 -8 -17 -3 -20 6 -3 15 1 21 8 7 8 8 17 3 20 -6 3 -15 -1 -21 -8z"/> <path d="M2961 2674 c-1 -6 5 -17 13 -23 11 -9 15 -7 19 9 4 17 3 19 -8 10 -10 -8 -14 -7 -18 2 -3 8 -6 8 -6 2z"/> <path d="M2335 2270 c-3 -5 -1 -10 4 -10 6 0 11 5 11 10 0 6 -2 10 -4 10 -3 0 -8 -4 -11 -10z"/> <path d="M2806 2103 c-6 -14 -5 -15 5 -6 7 7 10 15 7 18 -3 3 -9 -2 -12 -12z"/> <path d="M1684 2085 c3 -23 22 -39 30 -26 4 6 4 11 -1 11 -4 0 -1 5 7 11 13 9 12 10 -2 5 -10 -3 -18 -1 -18 4 0 6 -4 10 -9 10 -5 0 -8 -7 -7 -15z"/> <path d="M2451 1991 c-10 -6 -9 -10 3 -14 8 -3 18 -2 21 3 8 13 -9 20 -24 11z"/> <path d="M3461 1373 c12 -15 12 -16 -4 -10 -11 4 -16 3 -12 -3 8 -12 16 -12 35 0 13 9 13 11 0 20 -24 15 -34 12 -19 -7z"/> <path d="M728 1193 c6 -2 9 -10 6 -15 -4 -7 -2 -8 5 -4 13 9 5 26 -12 25 -9 0 -8 -2 1 -6z"/> <path d="M701 1159 c-1 -9 -8 -22 -17 -30 -14 -11 -14 -13 0 -21 18 -10 36 -3 36 15 0 7 -4 6 -10 -3 -5 -8 -12 -11 -16 -7 -4 3 -1 13 6 21 6 9 10 21 7 28 -4 9 -6 8 -6 -3z"/> <path d="M3865 960 c3 -5 11 -10 16 -10 6 0 7 5 4 10 -3 6 -11 10 -16 10 -6 0 -7 -4 -4 -10z"/> <path d="M3926 868 c3 -5 10 -6 15 -3 13 9 11 12 -6 12 -8 0 -12 -4 -9 -9z"/> <path d="M445 730 c-3 -5 -1 -10 4 -10 6 0 11 5 11 10 0 6 -2 10 -4 10 -3 0 -8 -4 -11 -10z"/> <path d="M3835 300 c-8 -13 9 -20 24 -11 10 6 9 10 -3 14 -8 3 -18 2 -21 -3z"/> <path d="M3916 291 c-18 -7 -18 -8 -3 -14 9 -3 17 -2 17 4 0 6 5 7 12 3 7 -4 8 -3 4 4 -4 7 -8 12 -9 11 -1 0 -11 -4 -21 -8z"/> <path d="M3860 269 c0 -5 5 -7 10 -4 6 3 10 8 10 11 0 2 -4 4 -10 4 -5 0 -10 -5 -10 -11z"/> <path d="M3612 217 c-9 -10 -8 -14 3 -14 8 0 12 4 9 9 -3 4 -1 8 5 8 5 0 12 -5 14 -10 3 -6 4 -5 3 2 -3 18 -21 21 -34 5z"/> <path d="M3468 203 c7 -3 16 -2 19 1 4 3 -2 6 -13 5 -11 0 -14 -3 -6 -6z"/> <path d="M2905 4001 c-3 -5 -2 -12 3 -15 5 -3 9 1 9 9 0 17 -3 19 -12 6z"/> <path d="M1130 3970 c-8 -5 -10 -10 -5 -10 6 0 17 5 25 10 8 5 11 10 5 10 -5 0 -17 -5 -25 -10z"/> <path d="M2695 3969 c-4 -6 -1 -17 7 -25 12 -12 14 -11 15 6 2 23 -13 35 -22 19z"/> <path d="M3320 3966 c7 -7 13 -7 20 0 6 6 3 10 -10 10 -13 0 -16 -4 -10 -10z"/> <path d="M2970 3955 c-7 -9 -11 -17 -9 -20 3 -2 10 5 17 15 14 24 10 26 -8 5z"/> <path d="M1686 3945 c-9 -26 -7 -32 5 -12 6 10 9 21 6 23 -2 3 -7 -2 -11 -11z"/> <path d="M3300 3956 c0 -2 8 -10 18 -17 15 -13 16 -12 3 4 -13 16 -21 21 -21 13z"/> <path d="M1123 3935 c0 -8 4 -12 9 -9 5 3 6 10 3 15 -9 13 -12 11 -12 -6z"/> <path d="M3345 3901 c-3 -5 -2 -12 3 -15 5 -3 9 1 9 9 0 17 -3 19 -12 6z"/> <path d="M1609 3898 c-5 -18 -6 -38 -1 -34 7 8 12 36 6 36 -2 0 -4 -1 -5 -2z"/> <path d="M1644 3878 l-19 -23 23 19 c21 18 27 26 19 26 -2 0 -12 -10 -23 -22z"/> <path d="M2837 3893 c-3 -5 5 -8 18 -8 13 0 21 3 18 8 -2 4 -10 7 -18 7 -8 0 -16 -3 -18 -7z"/> <path d="M1055 3879 c-11 -16 -1 -19 13 -3 7 8 8 14 3 14 -5 0 -13 -5 -16 -11z"/> <path d="M3043 3875 c0 -8 4 -15 9 -15 4 0 8 4 8 9 0 6 -4 12 -8 15 -5 3 -9 -1 -9 -9z"/> <path d="M1056 3823 c-6 -14 -5 -15 5 -6 7 7 10 15 7 18 -3 3 -9 -2 -12 -12z"/> <path d="M2878 3813 c7 -3 16 -2 19 1 4 3 -2 6 -13 5 -11 0 -14 -3 -6 -6z"/> <path d="M2917 3813 c-3 -5 5 -8 18 -8 13 0 21 3 18 8 -2 4 -10 7 -18 7 -8 0 -16 -3 -18 -7z"/> <path d="M1316 3788 c3 -5 9 -7 12 -4 3 3 12 0 21 -6 13 -10 14 -10 4 2 -15 16 -46 23 -37 8z"/> <path d="M1057 3775 c-4 -8 -3 -16 1 -19 4 -3 9 4 9 15 2 23 -3 25 -10 4z"/> <path d="M3416 3722 c-3 -5 1 -9 9 -9 8 0 12 4 9 9 -3 4 -7 8 -9 8 -2 0 -6 -4 -9 -8z"/> <path d="M3410 3676 c0 -2 8 -10 18 -17 15 -13 16 -12 3 4 -13 16 -21 21 -21 13z"/> <path d="M1256 3642 c-3 -5 1 -9 9 -9 8 0 12 4 9 9 -3 4 -7 8 -9 8 -2 0 -6 -4 -9 -8z"/> <path d="M3013 3637 c0 -8 6 -14 14 -14 9 0 10 4 2 14 -6 7 -12 13 -14 13 -1 0 -2 -6 -2 -13z"/> <path d="M3400 3637 c0 -2 6 -10 14 -16 11 -9 16 -9 22 1 4 7 4 10 -1 6 -4 -4 -14 -3 -22 3 -7 6 -13 9 -13 6z"/> <path d="M975 3559 c-11 -16 -1 -19 13 -3 7 8 8 14 3 14 -5 0 -13 -5 -16 -11z"/> <path d="M3090 3490 c-9 -6 -10 -10 -3 -10 6 0 15 5 18 10 8 12 4 12 -15 0z"/> <path d="M3060 3476 c0 -2 8 -10 18 -17 15 -13 16 -12 3 4 -13 16 -21 21 -21 13z"/> <path d="M969 3408 c-6 -21 -5 -37 2 -32 5 3 7 9 4 14 -3 4 1 11 7 13 10 4 10 6 1 6 -7 1 -13 0 -14 -1z"/> <path d="M3109 3408 c-6 -20 -6 -39 0 -42 4 -3 7 6 7 20 0 20 -4 32 -7 22z"/> <path d="M3492 3396 c7 -8 15 -12 17 -11 5 6 -10 25 -20 25 -5 0 -4 -6 3 -14z"/> <path d="M3111 3334 c0 -11 3 -14 6 -6 3 7 2 16 -1 19 -3 4 -6 -2 -5 -13z"/> <path d="M3097 3309 c7 -7 15 -10 18 -7 3 3 -2 9 -12 12 -14 6 -15 5 -6 -5z"/> <path d="M3590 3311 c0 -8 -7 -11 -17 -6 -15 5 -16 4 -5 -6 9 -10 15 -10 24 -1 6 6 9 15 5 19 -4 3 -7 1 -7 -6z"/> <path d="M3640 3246 c0 -2 8 -10 18 -17 15 -13 16 -12 3 4 -13 16 -21 21 -21 13z"/> <path d="M3630 3221 c0 -10 19 -25 25 -20 1 2 -3 10 -11 17 -8 7 -14 8 -14 3z"/> <path d="M3095 2870 c-3 -6 1 -7 9 -4 18 7 21 14 7 14 -6 0 -13 -4 -16 -10z"/> <path d="M3092 2644 c-7 -8 -8 -14 -3 -14 10 0 25 19 20 25 -2 1 -10 -3 -17 -11z"/> <path d="M3653 2635 c0 -7 6 -11 14 -8 7 3 13 6 13 8 0 2 -6 5 -13 8 -8 3 -14 -1 -14 -8z"/> <path d="M1377 2555 c-4 -8 -3 -16 1 -19 4 -3 9 4 9 15 2 23 -3 25 -10 4z"/> <path d="M3620 2566 c0 -2 8 -10 18 -17 15 -13 16 -12 3 4 -13 16 -21 21 -21 13z"/> <path d="M3650 2566 c0 -2 8 -10 18 -17 15 -13 16 -12 3 4 -13 16 -21 21 -21 13z"/> <path d="M829 2503 c-13 -16 -12 -17 4 -4 9 7 17 15 17 17 0 8 -8 3 -21 -13z"/> <path d="M1390 2496 c0 -2 8 -10 18 -17 15 -13 16 -12 3 4 -13 16 -21 21 -21 13z"/> <path d="M816 2472 c-3 -5 1 -9 9 -9 8 0 12 4 9 9 -3 4 -7 8 -9 8 -2 0 -6 -4 -9 -8z"/> <path d="M3576 2468 c3 -5 10 -6 15 -3 13 9 11 12 -6 12 -8 0 -12 -4 -9 -9z"/> <path d="M3025 2451 c-3 -5 -2 -12 3 -15 5 -3 9 1 9 9 0 17 -3 19 -12 6z"/> <path d="M1449 2428 c-6 -20 -6 -39 0 -42 4 -3 7 6 7 20 0 20 -4 32 -7 22z"/> <path d="M922 2396 c7 -8 15 -12 17 -11 5 6 -10 25 -20 25 -5 0 -4 -6 3 -14z"/> <path d="M956 2392 c-3 -5 1 -9 9 -9 8 0 12 4 9 9 -3 4 -7 8 -9 8 -2 0 -6 -4 -9 -8z"/> <path d="M1486 2392 c-3 -5 1 -9 9 -9 8 0 12 4 9 9 -3 4 -7 8 -9 8 -2 0 -6 -4 -9 -8z"/> <path d="M3020 2341 c0 -6 4 -12 8 -15 5 -3 9 1 9 9 0 8 -4 15 -9 15 -4 0 -8 -4 -8 -9z"/> <path d="M1545 2321 c-3 -5 -2 -12 3 -15 5 -3 9 1 9 9 0 17 -3 19 -12 6z"/> <path d="M2945 2209 c-4 -6 -5 -12 -2 -15 2 -3 7 2 10 11 7 17 1 20 -8 4z"/> <path d="M1902 2185 c4 -4 3 -14 -3 -21 -7 -8 -7 -14 1 -19 5 -3 10 -5 11 -3 6 27 5 39 -4 45 -7 3 -9 3 -5 -2z"/> <path d="M2326 2173 c-6 -14 -5 -15 5 -6 7 7 10 15 7 18 -3 3 -9 -2 -12 -12z"/> <path d="M2350 2186 c0 -2 8 -10 18 -17 15 -13 16 -12 3 4 -13 16 -21 21 -21 13z"/> <path d="M2921 2166 c-9 -10 -9 -16 -1 -21 6 -4 14 -4 17 -1 4 3 1 6 -6 6 -7 0 -9 5 -6 10 5 8 12 7 23 -2 15 -12 16 -11 3 5 -16 21 -16 21 -30 3z"/> <path d="M1937 2159 c7 -7 15 -10 18 -7 3 3 -2 9 -12 12 -14 6 -15 5 -6 -5z"/> <path d="M2340 2156 c0 -2 7 -7 16 -10 8 -3 12 -2 9 4 -6 10 -25 14 -25 6z"/> <path d="M2360 2046 c0 -2 8 -10 18 -17 15 -13 16 -12 3 4 -13 16 -21 21 -21 13z"/> <path d="M2325 2030 c-4 -6 1 -7 11 -3 13 5 15 3 9 -7 -5 -9 -4 -11 4 -6 6 4 9 12 6 17 -8 12 -22 12 -30 -1z"/> <path d="M2845 2001 c2 -18 21 -26 30 -12 4 7 -1 8 -12 4 -15 -6 -16 -4 -6 8 10 13 10 16 -1 16 -8 0 -13 -7 -11 -16z"/> <path d="M1613 1945 c0 -7 6 -11 14 -8 7 3 13 6 13 8 0 2 -6 5 -13 8 -8 3 -14 -1 -14 -8z"/> <path d="M2761 1876 c-10 -11 -9 -16 4 -24 9 -5 16 -12 16 -15 -1 -4 2 -7 7 -7 4 0 7 8 7 18 0 11 -7 16 -20 14 -16 -3 -17 -2 -6 12 8 9 11 16 8 16 -2 0 -10 -6 -16 -14z"/> <path d="M1683 1845 c0 -7 6 -11 14 -8 7 3 13 6 13 8 0 2 -6 5 -13 8 -8 3 -14 -1 -14 -8z"/> <path d="M2827 1803 c3 -7 6 -13 8 -13 2 0 5 6 8 13 3 8 -1 14 -8 14 -7 0 -11 -6 -8 -14z"/> <path d="M2856 1805 c-3 -8 -1 -15 4 -15 6 0 10 7 10 15 0 8 -2 15 -4 15 -2 0 -6 -7 -10 -15z"/> <path d="M1526 1793 c-6 -14 -5 -15 5 -6 7 7 10 15 7 18 -3 3 -9 -2 -12 -12z"/> <path d="M1540 1771 c0 -7 -5 -9 -12 -5 -7 5 -8 3 -3 -5 5 -9 10 -10 18 -2 6 6 8 14 4 18 -4 3 -7 1 -7 -6z"/> <path d="M1405 1730 c3 -6 1 -10 -6 -10 -7 0 -10 -3 -6 -6 3 -3 13 -2 22 4 16 8 16 9 1 15 -10 4 -15 3 -11 -3z"/> <path d="M3000 1726 c0 -2 7 -7 16 -10 8 -3 12 -2 9 4 -6 10 -25 14 -25 6z"/> <path d="M1210 1646 c7 -7 13 -7 20 0 6 6 3 10 -10 10 -13 0 -16 -4 -10 -10z"/> <path d="M1203 1615 c0 -8 4 -12 9 -9 5 3 6 10 3 15 -9 13 -12 11 -12 -6z"/> <path d="M1046 1572 c-3 -5 1 -9 9 -9 8 0 12 4 9 9 -3 4 -7 8 -9 8 -2 0 -6 -4 -9 -8z"/> <path d="M1079 1553 c-13 -16 -12 -17 4 -4 9 7 17 15 17 17 0 8 -8 3 -21 -13z"/> <path d="M1040 1526 c0 -2 7 -7 16 -10 8 -3 12 -2 9 4 -6 10 -25 14 -25 6z"/> <path d="M3474 1484 c1 -8 6 -17 11 -21 4 -4 5 -2 1 5 -7 11 6 17 29 12 6 -1 7 2 2 6 -13 13 -45 11 -43 -2z"/> <path d="M3650 1410 c-9 -6 -10 -10 -3 -10 6 0 15 5 18 10 8 12 4 12 -15 0z"/> <path d="M800 1406 c0 -3 9 -10 19 -16 15 -7 22 -7 27 2 4 7 4 10 -1 6 -4 -4 -16 -3 -26 3 -11 5 -19 7 -19 5z"/> <path d="M3620 1396 c0 -2 8 -10 18 -17 15 -13 16 -12 3 4 -13 16 -21 21 -21 13z"/> <path d="M3685 1331 c-3 -5 -2 -12 3 -15 5 -3 9 1 9 9 0 17 -3 19 -12 6z"/> <path d="M3735 1330 c-3 -5 -3 -10 1 -10 4 0 0 -6 -10 -13 -17 -12 -17 -14 1 -28 16 -13 17 -13 4 4 -11 14 -11 17 0 18 8 1 18 1 23 0 5 -1 4 4 -2 12 -7 8 -9 17 -5 20 3 4 4 7 0 7 -3 0 -9 -4 -12 -10z"/> <path d="M676 1252 c-3 -5 1 -9 9 -9 8 0 12 4 9 9 -3 4 -7 8 -9 8 -2 0 -6 -4 -9 -8z"/> <path d="M3753 1243 c0 -7 3 -11 5 -8 3 3 12 -1 21 -8 14 -10 14 -10 4 4 -7 9 -11 18 -8 21 3 2 -1 5 -8 5 -8 0 -14 -6 -14 -14z"/> <path d="M569 1143 c-13 -16 -12 -17 4 -4 9 7 17 15 17 17 0 8 -8 3 -21 -13z"/> <path d="M3900 1155 c0 -5 5 -17 10 -25 5 -8 10 -10 10 -5 0 6 -5 17 -10 25 -5 8 -10 11 -10 5z"/> <path d="M3897 1073 c3 -7 6 -13 8 -13 2 0 5 6 8 13 3 8 -1 14 -8 14 -7 0 -11 -6 -8 -14z"/> <path d="M487 1058 c7 -8 9 -19 5 -24 -4 -4 0 -3 9 4 9 6 18 11 20 9 2 -1 3 0 1 3 -2 3 -7 5 -10 5 -4 0 -14 4 -22 10 -12 7 -13 6 -3 -7z"/> <path d="M407 927 c-3 -7 3 -13 14 -13 13 0 15 3 7 13 -6 7 -12 13 -13 13 -2 0 -5 -6 -8 -13z"/> <path d="M408 893 c7 -3 16 -2 19 1 4 3 -2 6 -13 5 -11 0 -14 -3 -6 -6z"/> <path d="M323 655 c0 -8 4 -12 9 -9 5 3 6 10 3 15 -9 13 -12 11 -12 -6z"/> <path d="M325 321 c-3 -5 -2 -12 3 -15 5 -3 9 1 9 9 0 17 -3 19 -12 6z"/> <path d="M4130 316 c7 -7 13 -7 20 0 6 6 3 10 -10 10 -13 0 -16 -4 -10 -10z"/> <path d="M337 284 c-3 -4 -1 -16 5 -28 7 -11 11 -25 9 -31 -1 -5 3 -4 10 3 15 13 33 17 25 4 -3 -5 1 -9 9 -9 8 0 11 5 7 11 -4 6 -7 14 -7 18 0 3 -4 10 -9 15 -5 4 -6 3 -3 -3 4 -7 0 -14 -8 -18 -15 -5 -39 26 -28 38 3 3 4 6 1 6 -2 0 -8 -3 -11 -6z"/> <path d="M4039 233 c-13 -16 -12 -17 4 -4 9 7 17 15 17 17 0 8 -8 3 -21 -13z"/> <path d="M561 174 c0 -11 3 -14 6 -6 3 7 2 16 -1 19 -3 4 -6 -2 -5 -13z"/> <path d="M628 178 c9 -9 9 -15 -1 -27 -11 -14 -10 -14 6 -2 13 10 15 17 6 27 -6 8 -14 14 -17 14 -3 0 -1 -5 6 -12z"/> <path d="M3900 161 c0 -6 4 -12 8 -15 5 -3 9 1 9 9 0 8 -4 15 -9 15 -4 0 -8 -4 -8 -9z"/> <path d="M970 91 c0 -10 19 -25 25 -20 1 2 -3 10 -11 17 -8 7 -14 8 -14 3z"/> <path d="M3297 85 c-4 -8 -3 -16 1 -19 4 -3 9 4 9 15 2 23 -3 25 -10 4z"/> <path d="M1176 77 c3 -10 9 -15 12 -12 3 3 0 11 -7 18 -10 9 -11 8 -5 -6z"/> </g> </svg>